<svg width="32" height="17" viewBox="0 0 32 17" fill="none" xmlns="http://www.w3.org/2000/svg">
<path d="M31.5029 3.03418C31.1689 1.56348 29.6855 0 27.5839 0C23.8515 0.00977 20.121 0.01172 16.3896 0.01172L3.96772 0.01074C3.74995 0.01074 3.46577 0.01758 3.19917 0.06836C1.33394 0.42969 -0.0410633 2.11719 0.000936701 3.99316C0.0116767 4.47558 0.0185167 5.2041 0.0253467 5.94921C0.0360867 7.11816 0.0507367 8.57226 0.0810067 8.72948C0.439407 10.459 2.11519 11.8125 3.89644 11.8125L7.62691 11.8193C10.6757 11.8262 14.8369 11.835 18.623 11.835C24.4062 11.835 27.6113 11.8135 28.1484 11.7705C30.0156 11.6211 31.5957 9.89745 31.5986 8.0078L31.5996 3.8535C31.5996 3.59178 31.5683 3.32325 31.5029 3.03418ZM30.4472 9.15918C30.0527 10.1592 29.0312 10.8584 27.9619 10.8584H3.63863C2.55953 10.8584 1.53218 10.1465 1.14058 9.12793C1.10933 9.04688 1.04488 8.87891 1.14058 8.74023C1.23628 8.60155 1.41597 8.60156 1.50191 8.60156H1.50875C2.6943 8.60547 10.6728 8.6084 17.9043 8.6084C23.9853 8.6084 29.54 8.60645 30.0908 8.60156C30.2158 8.60156 30.3691 8.61816 30.456 8.74414C30.5527 8.88672 30.4863 9.05664 30.4472 9.15918ZM30.6689 4.98926C30.665 5.70996 30.6611 6.43067 30.6689 7.15137C30.6709 7.29688 30.6572 7.44727 30.5498 7.55567C30.4423 7.66505 30.29 7.67969 30.1494 7.67969C29.1103 7.67383 23.6152 7.67188 17.6367 7.67188C11.0927 7.67188 3.96969 7.67481 1.47359 7.67969C1.32808 7.67969 1.16402 7.66407 1.04879 7.5459C0.934527 7.42969 0.921837 7.26367 0.924767 7.11817C0.938437 6.38379 0.939417 5.64844 0.940387 4.91407L0.943317 3.85157C0.952107 2.12305 2.11617 0.96192 3.84078 0.96192L16.3955 0.96485C20.164 0.96485 23.9336 0.9629 27.7119 0.95411C28.5644 0.95411 29.3252 1.24708 29.8554 1.77735C30.3916 2.31446 30.6748 3.06348 30.6738 3.94532L30.6689 4.98926Z" fill="#4D4D4D"/>
<path d="M27.7089 15.8486C26.9433 15.6416 26.5136 15.168 26.3974 14.3984C26.3466 14.0635 26.3398 13.7324 26.333 13.3994L26.3281 13.1631C26.3232 12.958 26.2558 12.6152 25.8603 12.6084C25.5752 12.6084 25.4013 12.8008 25.3818 13.1367C25.3593 13.5332 25.3759 13.9385 25.4316 14.374C25.5859 15.5703 26.4345 16.5166 27.5947 16.7842C27.6377 16.7949 27.6796 16.7998 27.7207 16.7998C27.9804 16.7998 28.163 16.6064 28.164 16.331C28.165 16.1035 28.0917 15.9521 27.7089 15.8486Z" fill="#4D4D4D"/>
<path d="M5.73043 12.6084C5.35055 12.6201 5.28316 12.9453 5.27828 13.1377C5.27437 13.2432 5.27535 13.3486 5.27535 13.4541C5.27633 13.667 5.27633 13.8809 5.24996 14.0899C5.15133 14.9102 4.98629 15.5605 3.85543 15.8525C3.80172 15.8662 3.74215 15.8916 3.67281 15.9287C3.47359 16.0391 3.38179 16.2744 3.45601 16.4883C3.52144 16.6777 3.67964 16.8008 3.86031 16.8008L3.95699 16.7891C4.6523 16.6338 5.20308 16.293 5.59664 15.7764C6.0273 15.2119 6.22066 14.5166 6.22262 13.5244L6.22457 13.3916C6.22555 13.3037 6.2275 13.2168 6.22262 13.1309C6.20211 12.8037 6.02535 12.6084 5.73043 12.6084Z" fill="#4D4D4D"/>
<path d="M21.5498 15.9062C21.456 15.8691 21.3593 15.8389 21.1796 15.7822C20.6455 15.6094 20.2949 15.2471 20.1386 14.7061C20.0302 14.3252 19.9804 13.9248 19.9843 13.4824L19.9872 13.3301C19.9892 13.2315 19.9921 13.1328 19.9833 13.0352C19.9589 12.7754 19.7831 12.6084 19.5087 12.6084H19.5068C19.246 12.6211 19.0683 12.8106 19.0654 13.0801C19.0605 13.5381 19.0556 14.0117 19.121 14.4815C19.2743 15.584 20.2031 16.5733 21.2802 16.7832C21.3154 16.7901 21.3505 16.794 21.3847 16.794C21.5956 16.794 21.7665 16.668 21.83 16.4668C21.9032 16.2305 21.788 16 21.5498 15.9062Z" fill="#4D4D4D"/>
<path d="M12.0654 12.6084C11.8105 12.6084 11.6445 12.7647 11.623 13.0264C11.6123 13.1553 11.6123 13.2852 11.6132 13.4141C11.6132 13.5332 11.6132 13.6514 11.6054 13.7695C11.5263 15.1045 11.1728 15.6006 10.0859 15.8994C9.82223 16 9.68942 16.2324 9.76266 16.4658C9.82614 16.6719 9.99215 16.7949 10.208 16.7949C10.25 16.7949 10.2939 16.79 10.3378 16.7803C10.7685 16.6855 11.166 16.4873 11.5195 16.1924C12.2275 15.6016 12.5419 14.7988 12.541 13.5879L12.5429 13.4238C12.5439 13.3047 12.5458 13.1856 12.539 13.0654C12.5273 12.8086 12.3281 12.6123 12.0654 12.6084Z" fill="#4D4D4D"/>
<path d="M17.8095 4.4248H13.79C13.4755 4.4248 13.2783 4.59765 13.2753 4.87597C13.2734 5.00195 13.3154 5.11132 13.3955 5.19238C13.4863 5.28418 13.623 5.33496 13.7802 5.33593C14.2158 5.33788 15.4863 5.33886 16.5117 5.33886L17.7998 5.33788C17.9726 5.33788 18.1201 5.28417 18.2138 5.18749C18.292 5.10741 18.332 4.99901 18.3291 4.87304C18.3232 4.59277 18.1289 4.4248 17.8095 4.4248Z" fill="#4D4D4D"/>
</svg>
