<svg width="24" height="25" viewBox="0 0 24 25" fill="#A0A2A9" xmlns="http://www.w3.org/2000/svg">
<g clip-path="url(#clip0_37_1865)">
<path d="M4.98921 12.8064C6.18501 14.0027 7.38032 15.199 8.57564 16.3953C8.77291 16.5926 8.97994 16.7678 9.27681 16.7351C9.519 16.7517 9.71431 16.6726 9.87788 16.5091C10.2485 16.1384 10.6264 15.7752 10.9873 15.3958C11.3393 15.0257 11.3325 14.5701 10.9897 14.1936C10.9311 14.1287 10.8745 14.0598 10.8051 14.0086C10.5498 13.8196 10.54 13.6179 10.6811 13.3328C11.7558 11.156 13.3745 9.51541 15.5117 8.37869C16.0991 8.06619 16.1015 8.07058 16.5805 8.5281C16.9799 8.90994 17.4624 8.91335 17.8569 8.52859C18.2007 8.19314 18.54 7.8533 18.8759 7.51052C19.2866 7.0906 19.2924 6.63113 18.8813 6.21853C16.9155 4.24832 14.9477 2.28054 12.978 0.314229C12.5732 -0.090071 12.1367 -0.106671 11.7046 0.278589C11.3794 0.569119 11.0786 0.886499 10.769 1.19412C10.227 1.73269 10.2246 2.17068 10.7617 2.70828C12.2426 4.19021 13.7226 5.67361 15.2094 7.15017C15.393 7.33279 15.4306 7.42117 15.1582 7.56228C12.9013 8.73123 11.185 10.45 9.99947 12.698C9.88424 12.9168 9.73499 12.935 9.55172 12.7527C8.06246 11.263 6.57467 9.77224 5.08443 8.28445C4.62349 7.82449 4.17916 7.81863 3.71187 8.2659C3.38912 8.57547 3.0732 8.89236 2.76167 9.21365C2.30659 9.68191 2.32222 10.1424 2.78999 10.6072C3.52534 11.3382 4.2563 12.073 4.98921 12.8064ZM11.4961 2.1863C11.3271 2.01833 11.3115 1.89187 11.4941 1.72878C11.6967 1.54665 11.8989 1.36013 12.0732 1.15163C12.2573 0.931419 12.3837 0.971449 12.5683 1.15749C14.0439 2.64528 15.5283 4.12429 17.0102 5.60622C17.3574 5.95388 17.7055 6.30007 18.0512 6.64919C18.1113 6.70974 18.1616 6.78005 18.2026 6.82937C18.2055 6.95291 17.3213 7.83572 17.2212 7.83328C17.1235 7.83133 17.0683 7.75418 17.0083 7.69412C15.1709 5.85818 13.3359 4.01932 11.4961 2.18631V2.1863ZM3.65718 9.57204C3.82954 9.40505 4.01167 9.24636 4.16695 9.06472C4.32906 8.87576 4.44283 8.89333 4.61275 9.0657C5.46089 9.92947 6.32076 10.7815 7.1772 11.6375C8.14888 12.6092 9.12056 13.5808 10.0918 14.5535C10.1601 14.6219 10.2211 14.697 10.2739 14.7556C10.2734 14.867 10.2085 14.9143 10.1562 14.9676C9.97993 15.1463 9.80317 15.324 9.62544 15.5012C9.28706 15.8386 9.27925 15.846 8.93062 15.5017C8.13912 14.7205 7.35445 13.9319 6.5688 13.1448C5.5981 12.1726 4.62788 11.2 3.65962 10.2254C3.32759 9.8914 3.3315 9.88895 3.65718 9.57206V9.57204Z" />
<path d="M23.4736 18.3402C23.1425 17.993 22.7968 17.659 22.4574 17.3197C19.9965 14.8577 17.5365 12.3958 15.0751 9.93441C14.7944 9.65365 14.6205 9.68246 14.248 10.0716C14.0038 10.327 14.3051 10.4183 14.414 10.5282C15.7485 11.8783 17.0942 13.2181 18.4365 14.5604C19.8788 16.0037 21.3202 17.4476 22.7646 18.8895C23.0829 19.2074 23.1679 19.5775 23.0322 19.9998C22.9047 20.3963 22.6078 20.5955 22.2143 20.6629C21.7949 20.7342 21.4804 20.535 21.1982 20.2523C20.0815 19.1317 18.9618 18.014 17.8432 16.8949C16.1923 15.2435 14.5419 13.5916 12.8891 11.9422C12.8085 11.8617 12.726 11.703 12.6049 11.7635C12.3852 11.8729 12.2656 12.0985 12.1567 12.3099C12.0776 12.4627 12.2407 12.5418 12.3266 12.6283C13.4189 13.7264 14.5151 14.8216 15.6103 15.9168C17.2919 17.598 18.976 19.2772 20.6552 20.9613C21.0444 21.3514 21.5077 21.5555 22.0937 21.5819C22.8637 21.535 23.4775 21.1834 23.8242 20.4364C24.1533 19.7274 24.0121 18.9056 23.4736 18.3402L23.4736 18.3402Z" />
<path d="M15.58 23.1873C10.6259 23.1868 5.67229 23.1868 0.718671 23.1873C0.251871 23.1873 0.0121307 23.3347 0.000410672 23.6252C-0.0113093 23.9163 0.227951 24.0696 0.702071 24.0696C3.17912 24.0701 5.65568 24.0696 8.13273 24.0696C10.6205 24.0696 13.1083 24.0701 15.5961 24.0696C16.0844 24.0696 16.3051 23.9275 16.2929 23.6252C16.2807 23.3225 16.0624 23.1873 15.58 23.1873Z" />
<path d="M2.25378 22.0183C2.37048 22.0393 2.49255 22.0349 2.61218 22.0349C4.45544 22.0359 6.29822 22.0359 8.14148 22.0359C9.99548 22.0359 11.8495 22.0359 13.7035 22.0349C13.8231 22.0349 13.9467 22.0432 14.0619 22.0183C14.2787 21.9724 14.4066 21.8274 14.4027 21.6013C14.3993 21.3831 14.2875 21.2253 14.0682 21.1741C13.9642 21.1497 13.8514 21.1555 13.743 21.1555C10.0238 21.155 6.30505 21.155 2.5863 21.1555C2.47741 21.1555 2.36706 21.1531 2.26013 21.1711C2.01794 21.2122 1.9032 21.3806 1.90271 21.6101C1.90222 21.8328 2.0321 21.9792 2.25378 22.0183V22.0183Z" />
<path d="M6.62782 8.7888C6.77284 8.97679 6.92079 8.95677 7.1078 8.84398C8.84022 7.80052 10.2255 6.41136 11.2704 4.68187C11.3148 4.60814 11.3471 4.52708 11.3827 4.45384C11.309 4.23314 11.1171 4.12718 10.9847 3.97239C10.8402 3.80296 10.7362 3.81419 10.62 4.01878C9.61023 5.79222 8.2118 7.18089 6.44471 8.19798C6.24549 8.31321 6.22157 8.40892 6.39686 8.55784C6.47987 8.62815 6.5619 8.70286 6.62782 8.7888Z" />
</g>
<defs>
<clipPath id="clip0_37_1865">
<rect width="24.0002" height="24.0698" fill="white"/>
</clipPath>
</defs>
</svg>
