<svg width="32" height="33" viewBox="0 0 32 33" fill="none" xmlns="http://www.w3.org/2000/svg">
<path d="M7.44194 17.8698C8.07018 17.8727 7.63933 17.9429 7.63933 17.5418C7.63933 15.4738 7.65347 13.4048 7.61935 11.3368C7.60765 10.6121 7.74899 10.2612 8.59169 10.2846C10.6982 10.3421 12.8081 10.3382 14.9151 10.286C15.6832 10.267 15.8562 10.5483 15.8445 11.2481C15.8094 13.2762 15.8299 15.3057 15.8299 17.3342C15.8299 17.8815 15.2075 17.8874 16.0531 17.8781C16.9309 17.8683 16.2286 17.8839 16.2286 17.2986C16.2286 15.3095 16.2573 13.32 16.2174 11.332C16.2023 10.5921 16.3631 10.2724 17.1965 10.2968C19.2635 10.3567 21.3345 10.3572 23.401 10.2958C24.2788 10.2699 24.4655 10.6019 24.4469 11.3997C24.4006 13.3873 24.4308 15.3768 24.4308 17.3658C24.4308 17.8956 23.8343 17.9015 24.6658 17.8761C25.451 17.8522 25.351 17.4078 25.3506 16.9223C25.3481 11.6648 25.3272 6.40689 25.3691 1.14992C25.3764 0.196584 25.0269 -0.0134813 24.156 0.000652862C21.4587 0.0459799 19.1661 0.0177116 16.0624 0.0177116C13.295 0.0177216 10.5276 0.0343013 7.76069 0.00651213C7.03789 -0.000315365 6.69672 0.17125 6.70062 0.985679C6.72791 6.34647 6.72061 11.7082 6.70452 17.0695C6.70258 17.6242 6.8215 17.8669 7.44194 17.8698ZM17.1385 0.881869C19.2421 0.928175 21.3481 0.927686 23.4522 0.882848C24.252 0.8653 24.482 1.15335 24.446 1.9205C24.3899 3.10924 24.4313 4.30237 24.4313 5.49403C24.4333 6.64574 24.4011 7.79841 24.445 8.94816C24.4718 9.65146 24.2715 9.93366 23.5141 9.91758C21.3705 9.87225 19.2251 9.87615 17.081 9.91709C16.3714 9.93073 16.213 9.65292 16.2203 9.01006C16.2476 6.62721 16.251 4.24437 16.2189 1.86201C16.2101 1.17187 16.3689 0.864811 17.1385 0.881869ZM8.57219 0.884794C10.7162 0.921836 12.8617 0.91453 15.0057 0.887719C15.6179 0.879923 15.8596 1.07488 15.8421 1.70409C15.8075 2.93426 15.8319 4.1659 15.8319 5.39704C15.8323 6.62819 15.8094 7.8603 15.8416 9.09048C15.8582 9.70411 15.6515 9.92343 15.0208 9.91417C12.8373 9.88249 10.6524 9.87664 8.46838 9.91515C7.74315 9.92831 7.61497 9.60907 7.62131 8.98667C7.6447 6.60382 7.65591 4.2205 7.61838 1.83814C7.60717 1.10706 7.84695 0.872127 8.57219 0.884794Z" fill="#4D4D4D"/>
<path d="M29.2687 21.4029C28.9928 21.4029 28.7696 21.6261 28.7696 21.902V29.4619C28.7696 29.7377 28.9928 29.9609 29.2687 29.9609C29.5441 29.9609 29.7678 29.7377 29.7678 29.4619V21.902C29.7678 21.6261 29.5441 21.4029 29.2687 21.4029Z" fill="#4D4D4D"/>
<path d="M2.29512 21.902V29.4619C2.29512 29.7377 2.51834 29.9609 2.7942 29.9609C3.06958 29.9609 3.29329 29.7377 3.29329 29.4619V21.902C3.29329 21.6261 3.06958 21.4029 2.7942 21.4029C2.51834 21.4029 2.29512 21.6261 2.29512 21.902Z" fill="#4D4D4D"/>
<path d="M6.70745 21.902V29.4619C6.70745 29.7377 6.93067 29.9609 7.20654 29.9609C7.48191 29.9609 7.70562 29.7377 7.70562 29.4619V21.902C7.70562 21.6261 7.48191 21.4029 7.20654 21.4029C6.93067 21.4029 6.70745 21.6261 6.70745 21.902Z" fill="#4D4D4D"/>
<path d="M11.1198 21.902V29.4619C11.1198 29.7377 11.343 29.9609 11.6189 29.9609C11.8947 29.9609 12.118 29.7377 12.118 29.4619V21.902C12.118 21.6261 11.8947 21.4029 11.6189 21.4029C11.343 21.4029 11.1198 21.6261 11.1198 21.902Z" fill="#4D4D4D"/>
<path d="M15.5321 21.902V29.4619C15.5321 29.7377 15.7558 29.9609 16.0312 29.9609C16.3071 29.9609 16.5303 29.7377 16.5303 29.4619V21.902C16.5303 21.6261 16.3071 21.4029 16.0312 21.4029C15.7558 21.4029 15.5321 21.6261 15.5321 21.902Z" fill="#4D4D4D"/>
<path d="M19.9444 21.902V29.4619C19.9444 29.7377 20.1682 29.9609 20.4435 29.9609C20.7194 29.9609 20.9426 29.7377 20.9426 29.4619V21.902C20.9426 21.6261 20.7194 21.4029 20.4435 21.4029C20.1682 21.4029 19.9444 21.6261 19.9444 21.902Z" fill="#4D4D4D"/>
<path d="M24.3573 21.902V29.4619C24.3573 29.7377 24.5805 29.9609 24.8563 29.9609C25.1317 29.9609 25.3554 29.7377 25.3554 29.4619V21.902C25.3554 21.6261 25.1317 21.4029 24.8563 21.4029C24.5805 21.4029 24.3573 21.6261 24.3573 21.902Z" fill="#4D4D4D"/>
<path d="M31.5009 31.0205H0.499575C0.22371 31.0205 0 31.2442 0 31.5196C0 31.7955 0.22371 32.0187 0.499575 32.0187H31.5009C31.7763 32.0187 32 31.7955 32 31.5196C32 31.2442 31.7763 31.0205 31.5009 31.0205Z" fill="#4D4D4D"/>
<path d="M0.499575 20.5446H31.5009C31.7763 20.5446 32 20.3209 32 20.0455C32 19.7696 31.7763 19.5459 31.5009 19.5459H0.499575C0.22371 19.5459 0 19.7696 0 20.0455C0 20.3209 0.22371 20.5446 0.499575 20.5446Z" fill="#4D4D4D"/>
</svg>
