<svg width="32" height="32" viewBox="0 0 32 32" fill="none" xmlns="http://www.w3.org/2000/svg">
<path d="M30.2851 19.3487H1.71491C0.76926 19.3487 0 18.5794 0 17.6338C0 16.6881 0.76926 15.9189 1.71491 15.9189H30.2851C31.2307 15.9189 32 16.6881 32 17.6338C32 18.5794 31.2307 19.3487 30.2851 19.3487ZM1.71491 16.8572C1.28653 16.8572 0.93832 17.2054 0.93832 17.6338C0.93832 18.0622 1.28652 18.4104 1.71491 18.4104H30.2851C30.7134 18.4104 31.0616 18.0622 31.0616 17.6338C31.0616 17.2054 30.7135 16.8572 30.2851 16.8572H1.71491Z" fill="#4D4D4D"/>
<path d="M25.3832 28.9917H6.6168C4.19953 28.9917 2.23263 26.9886 2.23263 24.5269V22.8756C2.23263 22.0977 1.92658 21.366 1.65626 20.7204C1.3557 20.0025 1.09638 19.3831 1.42351 18.8919C1.71032 18.4603 2.29036 18.4104 2.70179 18.4104H29.2982C29.7096 18.4104 30.2896 18.4603 30.5769 18.8919C30.9036 19.3831 30.6443 20.003 30.3437 20.7204C30.0738 21.366 29.7673 22.0977 29.7673 22.8756V24.5269C29.7673 26.9886 27.8004 28.9917 25.3832 28.9917ZM2.70179 19.3487C2.29265 19.3487 2.19506 19.4229 2.19414 19.4238C2.17627 19.532 2.38428 20.0291 2.52173 20.358C2.81083 21.0489 3.17095 21.9089 3.17095 22.8757V24.5269C3.17095 26.4713 4.71679 28.0534 6.6168 28.0534H25.3832C27.2832 28.0534 28.829 26.4713 28.829 24.5269V22.8757C28.829 21.9089 29.1891 21.0489 29.4782 20.358C29.6143 20.0332 29.8187 19.5448 29.7893 19.4014C29.7825 19.4115 29.6615 19.3487 29.2982 19.3487H2.70179Z" fill="#4D4D4D"/>
<path d="M4.1253 16.8572C3.86598 16.8572 3.65614 16.6474 3.65614 16.388V2.96019C3.65614 1.32775 4.98436 0 6.61679 0C7.88865 0 9.01619 0.80912 9.42212 2.01317C9.50505 2.25875 9.3731 2.52494 9.12752 2.60741C8.88286 2.6908 8.61621 2.55839 8.53328 2.31281C8.25609 1.49086 7.48592 0.93832 6.61678 0.93832C5.50161 0.93832 4.59445 1.84548 4.59445 2.96019V16.388C4.59445 16.6474 4.38462 16.8572 4.1253 16.8572Z" fill="#4D4D4D"/>
<path d="M7.8291 5.97537C7.59589 5.97537 7.37598 5.83655 7.28434 5.60976L7.2289 5.47139C6.64978 4.02359 7.35627 2.37558 8.80315 1.79692C10.2487 1.21963 11.8971 1.92475 12.4767 3.37071L12.5321 3.51045C12.5899 3.65386 12.588 3.81284 12.5262 3.95716C12.4643 4.10102 12.3503 4.2119 12.205 4.26963L8.04397 5.9346C7.97341 5.96209 7.90057 5.97537 7.8291 5.97537ZM9.85006 2.53319C9.61731 2.53319 9.38044 2.57672 9.15136 2.66835C8.68312 2.85528 8.31613 3.21402 8.11729 3.67723C7.94594 4.07766 7.91799 4.51475 8.0339 4.92802L11.5191 3.53337C11.1865 2.90752 10.5346 2.53319 9.85006 2.53319Z" fill="#4D4D4D"/>
<path d="M12.6238 5.86312C12.5445 5.86312 12.4666 5.82234 12.4227 5.74904L12.0373 5.10669C11.9704 4.99581 12.0066 4.85149 12.118 4.78506C12.2279 4.71863 12.3732 4.75482 12.4396 4.8657L12.8249 5.50805C12.8918 5.61893 12.8556 5.76325 12.7443 5.82968C12.7067 5.85259 12.665 5.86312 12.6238 5.86312Z" fill="#4D4D4D"/>
<path d="M13.5419 7.32053C13.4627 7.32053 13.3848 7.27975 13.3408 7.20645L12.9555 6.5641C12.8886 6.45322 12.9248 6.3089 13.0361 6.24247C13.1465 6.17604 13.2913 6.21177 13.3577 6.32311L13.7431 6.96546C13.81 7.07634 13.7738 7.22066 13.6624 7.28709C13.6249 7.31 13.5832 7.32053 13.5419 7.32053Z" fill="#4D4D4D"/>
<path d="M11.0541 7.07862C10.9648 7.07862 10.8791 7.02685 10.8401 6.9398L10.5336 6.25622C10.4805 6.13801 10.5336 5.99965 10.6518 5.9465C10.7696 5.89152 10.9089 5.94604 10.9616 6.06471L11.2681 6.74829C11.3212 6.8665 11.2685 7.00486 11.1499 7.05801C11.1187 7.07221 11.0862 7.07862 11.0541 7.07862Z" fill="#4D4D4D"/>
<path d="M11.8087 8.62218C11.7194 8.62218 11.6337 8.57087 11.5947 8.48381L11.2878 7.79977C11.2346 7.68156 11.2873 7.54274 11.4055 7.48959C11.5224 7.43507 11.6621 7.48913 11.7157 7.60734L12.0227 8.29138C12.0758 8.40959 12.0231 8.54841 11.9049 8.60156C11.8738 8.61576 11.8408 8.62218 11.8087 8.62218Z" fill="#4D4D4D"/>
<path d="M26.7384 31.337C26.5666 31.337 26.4012 31.2426 26.3187 31.0786L25.1385 28.7333C25.0221 28.5019 25.1156 28.2201 25.347 28.1033C25.577 27.9869 25.8606 28.0799 25.9769 28.3118L27.1572 30.6571C27.2735 30.8885 27.1801 31.1702 26.9487 31.2871C26.8813 31.321 26.8094 31.337 26.7384 31.337Z" fill="#4D4D4D"/>
<path d="M5.37151 31.337C5.30049 31.337 5.22856 31.321 5.16121 31.2871C4.92984 31.1707 4.83637 30.8885 4.95275 30.6571L6.13252 28.3118C6.24889 28.0799 6.53158 27.9869 6.76249 28.1033C6.99386 28.2197 7.08733 28.5019 6.97095 28.7333L5.79118 31.0786C5.70871 31.2426 5.54332 31.337 5.37151 31.337Z" fill="#4D4D4D"/>
<path d="M8.82423 7.37002C8.72985 7.37002 8.64051 7.31275 8.60523 7.21883L8.33812 6.5183C8.29185 6.39734 8.35232 6.26173 8.47374 6.21591C8.59515 6.17055 8.73077 6.23011 8.77613 6.35153L9.04324 7.05206C9.08951 7.17302 9.02904 7.30863 8.90762 7.35445C8.88013 7.36499 8.85218 7.37002 8.82423 7.37002Z" fill="#4D4D4D"/>
<path d="M9.49681 8.94747C9.40243 8.94747 9.31309 8.8902 9.27781 8.79628L9.0107 8.09575C8.96443 7.97479 9.0249 7.83918 9.14632 7.79336C9.26682 7.74663 9.40289 7.8071 9.44871 7.92898L9.71582 8.62951C9.76209 8.75047 9.70162 8.88608 9.5802 8.9319C9.55271 8.94244 9.52476 8.94747 9.49681 8.94747Z" fill="#4D4D4D"/>
</svg>
