<svg width="32" height="17" viewBox="0 0 32 17" fill="none" xmlns="http://www.w3.org/2000/svg">
<path d="M29.2308 14.9971H2.76917C1.24237 14.9971 0 13.7552 0 12.2284V9.41426C0 7.4585 1.59122 5.86728 3.54741 5.86728H28.4526C30.4088 5.86728 32 7.4585 32 9.41426V12.2284C32 13.7552 30.7576 14.9971 29.2308 14.9971ZM3.54741 6.73538C2.07021 6.73538 0.8681 7.93706 0.8681 9.41427V12.2284C0.8681 13.2762 1.72094 14.129 2.76918 14.129H29.2308C30.2791 14.129 31.1319 13.2762 31.1319 12.2284V9.41427C31.1319 7.93707 29.9298 6.73538 28.4526 6.73538H3.54741Z" fill="#4D4D4D"/>
<path d="M25.9382 5.29844C25.6982 5.29844 25.5041 5.10431 25.5041 4.86439V3.54741C25.5041 2.07021 24.302 0.8681 22.8248 0.8681H9.17476C7.69756 0.8681 6.49587 2.07021 6.49587 3.54741V4.86439C6.49587 5.1043 6.30174 5.29844 6.06182 5.29844C5.8219 5.29844 5.62777 5.10431 5.62777 4.86439V3.54741C5.62777 1.59123 7.21899 0 9.17475 0H22.8248C24.781 0 26.3722 1.59122 26.3722 3.54741V4.86439C26.3722 5.1043 26.1781 5.29844 25.9382 5.29844Z" fill="#4D4D4D"/>
<path d="M25.9382 9.13027H5.94187C5.70196 9.13027 5.50782 8.97846 5.50782 8.79084C5.50782 8.60322 5.70195 8.45141 5.94187 8.45141H25.9382C26.1781 8.45141 26.3722 8.60322 26.3722 8.79084C26.3722 8.97846 26.1781 9.13027 25.9382 9.13027Z" fill="#4D4D4D"/>
<path d="M19.5249 4.78937C19.285 4.78937 19.0909 4.59524 19.0909 4.35532V0.43406C19.0909 0.19415 19.285 1e-05 19.5249 1e-05C19.7648 1e-05 19.959 0.19414 19.959 0.43406V4.35532C19.959 4.59523 19.7648 4.78937 19.5249 4.78937Z" fill="#4D4D4D"/>
<path d="M12.7446 4.78937C12.5047 4.78937 12.3106 4.59524 12.3106 4.35532V0.43406C12.3106 0.19415 12.5047 1e-05 12.7446 1e-05C12.9845 1e-05 13.1787 0.19414 13.1787 0.43406V4.35532C13.1787 4.59523 12.9845 4.78937 12.7446 4.78937Z" fill="#4D4D4D"/>
<path d="M7.5136 16.5239H4.81945C4.22518 16.5239 3.74196 16.0403 3.74196 15.446V14.129H8.59108V15.446C8.59108 16.0403 8.10787 16.5239 7.5136 16.5239ZM4.61006 14.9971V15.446C4.61006 15.5617 4.70416 15.6558 4.81945 15.6558H7.5136C7.62889 15.6558 7.72299 15.5617 7.72299 15.446V14.9971H4.61006Z" fill="#4D4D4D"/>
<path d="M27.9588 16.5239H25.2646C24.6703 16.5239 24.1871 16.0403 24.1871 15.446V14.129H29.0362V15.446C29.0362 16.0403 28.553 16.5239 27.9588 16.5239ZM25.0552 14.9971V15.446C25.0552 15.5617 25.1493 15.6558 25.2646 15.6558H27.9588C28.074 15.6558 28.1681 15.5617 28.1681 15.446V14.9971H25.0552Z" fill="#4D4D4D"/>
</svg>
