<svg width="32" height="29" viewBox="0 0 32 29" fill="none" xmlns="http://www.w3.org/2000/svg">
<path d="M31.7668 8.89911L16.0965 0L0.235433 8.89776C0.0135934 9.0224 -0.0655966 9.30319 0.0590434 9.52502C0.143633 9.67576 0.300233 9.76036 0.461323 9.76036C0.537823 9.76036 0.615213 9.74146 0.686313 9.70141L16.0938 1.05834L31.3115 9.70007C31.5324 9.82561 31.8141 9.74822 31.9396 9.52728C32.0656 9.30589 31.9878 9.02465 31.7668 8.89911Z" fill="#4D4D4D"/>
<path d="M25.9608 16.6141C25.9467 11.4307 21.7268 7.21801 16.5402 7.21801H15.4598C10.2732 7.21801 6.05359 11.4307 6.03919 16.6139C5.08907 17.1671 4.44854 18.1942 4.44854 19.3731V24.5964C4.44854 25.1778 4.91966 25.6489 5.50103 25.6489H5.58787C5.77236 27.1016 7.01361 28.2295 8.51584 28.2295C10.0176 28.2295 11.2589 27.1016 11.4434 25.6489H20.7479C20.9324 27.1016 22.1736 28.2295 23.6754 28.2295C25.1819 28.2295 26.4266 27.0951 26.6052 25.6363C27.1368 25.5742 27.551 25.1274 27.551 24.5791V19.3731C27.551 18.1944 26.9107 17.1676 25.9608 16.6141ZM6.97152 16.1792C7.21181 11.7051 10.9272 8.13955 15.4598 8.13955H16.5402C21.0728 8.13955 24.7882 11.7051 25.0285 16.1792H23.7659C23.729 14.724 22.5368 13.5514 21.0728 13.5514C19.6088 13.5514 18.4166 14.724 18.3797 16.1792H6.97152ZM22.8409 16.1792H19.3046C19.3417 15.2329 20.1177 14.4729 21.0728 14.4729C22.0278 14.4729 22.8038 15.2329 22.8409 16.1792ZM8.51583 27.3079C7.52274 27.3079 6.69704 26.5914 6.5211 25.6489H10.5101C10.3342 26.5914 9.50847 27.3079 8.51583 27.3079ZM23.6754 27.3079C22.6828 27.3079 21.8571 26.5914 21.6811 25.6489H25.6702C25.4942 26.5914 24.6685 27.3079 23.6754 27.3079ZM26.6295 24.7274H5.37007V19.3731C5.37007 18.12 6.38926 17.1008 7.64243 17.1008H24.3571C25.6103 17.1008 26.6295 18.12 26.6295 19.3731V24.7274Z" fill="#4D4D4D"/>
<path d="M23.4518 20.215C22.4619 20.215 21.6564 21.0205 21.6564 22.0104C21.6564 23.0004 22.4619 23.8058 23.4518 23.8058C24.4417 23.8058 25.2472 23.0004 25.2472 22.0104C25.2472 21.0205 24.4417 20.215 23.4518 20.215ZM23.4518 22.8843C22.9699 22.8843 22.5779 22.4923 22.5779 22.0104C22.5779 21.5285 22.9699 21.1366 23.4518 21.1366C23.9337 21.1366 24.3256 21.5285 24.3256 22.0104C24.3256 22.4923 23.9337 22.8843 23.4518 22.8843Z" fill="#4D4D4D"/>
<path d="M8.75252 20.215C7.76258 20.215 6.95713 21.0205 6.95713 22.0104C6.95713 23.0004 7.76258 23.8058 8.75252 23.8058C9.74246 23.8058 10.5479 23.0004 10.5479 22.0104C10.5479 21.0205 9.74246 20.215 8.75252 20.215ZM8.75252 22.8843C8.2706 22.8843 7.87867 22.4923 7.87867 22.0104C7.87867 21.5285 8.2706 21.1366 8.75252 21.1366C9.23444 21.1366 9.62637 21.5285 9.62637 22.0104C9.62637 22.4923 9.23444 22.8843 8.75252 22.8843Z" fill="#4D4D4D"/>
</svg>
