<svg width="31" height="31" viewBox="0 0 31 31" fill="none" xmlns="http://www.w3.org/2000/svg">
<path d="M26.5799 30.5C26.2029 30.5 25.8971 30.1941 25.8971 29.8172C25.8971 29.4402 26.2029 29.1343 26.5799 29.1343C27.2628 29.1343 27.9047 28.8685 28.3866 28.3866C28.8685 27.9047 29.1343 27.2627 29.1343 26.5808V7.84016H1.36567V26.5808C1.36567 27.2628 1.63151 27.9038 2.1143 28.3866C2.58908 28.8623 3.24703 29.1343 3.92008 29.1343H4.53709C4.91407 29.1343 5.21993 29.4402 5.21993 29.8172C5.21993 30.1942 4.91408 30.5 4.53709 30.5H3.92008C2.88694 30.5 1.87691 30.0812 1.14873 29.3522C0.4081 28.6115 0 27.6273 0 26.5808V3.92008C0 2.8736 0.4081 1.88936 1.14873 1.14873C1.8778 0.41877 2.88783 0 3.92008 0H26.5799C27.6273 0 28.6115 0.4081 29.3522 1.14873C30.0928 1.88847 30.5 2.87271 30.5 3.92008V26.5808C30.5 27.6282 30.0928 28.6124 29.3522 29.3522C28.6124 30.0928 27.6273 30.5 26.5799 30.5ZM1.36567 6.47449H29.1343V3.92008C29.1343 3.23813 28.8685 2.5962 28.3866 2.1143C27.9038 1.63151 27.2619 1.36567 26.5799 1.36567H3.92008C3.24791 1.36567 2.58997 1.63863 2.1143 2.1143C1.63151 2.59709 1.36567 3.23813 1.36567 3.92008V6.47449ZM18.4872 30.5H12.0128C11.6358 30.5 11.3299 30.1941 11.3299 29.8172C11.3299 29.4402 11.6358 29.1343 12.0128 29.1343H14.5672V21.7245C14.5672 21.3475 14.873 21.0416 15.25 21.0416C15.627 21.0416 15.9328 21.3475 15.9328 21.7245V29.1343H18.4873C18.8642 29.1343 19.1701 29.4402 19.1701 29.8172C19.1701 30.1941 18.8642 30.5 18.4872 30.5Z" fill="#4D4D4D"/>
<path d="M15.25 22.4073C12.1959 22.4073 9.71174 19.6813 9.71174 16.3303V12.0137C9.71174 11.6367 10.0176 11.3308 10.3946 11.3308H20.1063C20.4833 11.3308 20.7892 11.6367 20.7892 12.0137V16.3303C20.7892 19.6813 18.3041 22.4073 15.25 22.4073ZM11.0774 12.6965V16.3303C11.0774 18.9283 12.949 21.0416 15.25 21.0416C17.551 21.0416 19.4235 18.9283 19.4235 16.3303V12.6965H11.0774ZM25.6844 4.60736C25.5226 4.60736 25.3607 4.55135 25.2327 4.43576C25.0816 4.29884 25.0024 4.11301 25.0024 3.9263C25.0024 3.76715 25.0584 3.60889 25.174 3.47997L25.19 3.46219C25.4434 3.18301 25.8746 3.15989 26.1547 3.41151C26.3041 3.54665 26.3805 3.73337 26.3805 3.92008C26.3805 4.08279 26.3228 4.24549 26.2054 4.37619C26.0685 4.52823 25.8764 4.60736 25.6844 4.60736ZM22.8665 4.60736C22.7047 4.60736 22.5429 4.55135 22.4149 4.43576C22.1348 4.18325 22.1037 3.76093 22.3562 3.47997L22.3722 3.46219C22.6256 3.18301 23.0568 3.15989 23.3368 3.41151C23.6169 3.66402 23.64 4.09523 23.3875 4.37619C23.2506 4.52823 23.0586 4.60736 22.8665 4.60736Z" fill="#4D4D4D"/>
</svg>
