<svg width="32" height="35" viewBox="0 0 32 35" fill="none" xmlns="http://www.w3.org/2000/svg">
<path d="M30.0049 13.0194L18.2857 9.62058C17.7886 9.30222 17.2154 9.08933 16.6128 8.99851V8.02439C18.5259 7.70066 19.9839 6.00731 19.9839 4.041C19.9839 1.81298 18.1709 0 15.9429 0C13.7144 0 11.9014 1.81298 11.9014 4.041C11.9014 4.30907 11.9273 4.57567 11.98 4.83397C12.0152 5.00926 12.1172 5.16112 12.2671 5.25975C12.4161 5.35936 12.5967 5.39452 12.7686 5.35838C12.9439 5.32322 13.0948 5.22215 13.1944 5.07274C13.293 4.92381 13.3282 4.7451 13.293 4.56932C13.2583 4.39842 13.2407 4.22069 13.2407 4.041C13.2407 2.55126 14.4531 1.33935 15.9429 1.33935C17.4326 1.33935 18.6445 2.55126 18.6445 4.041C18.6445 5.53074 17.4326 6.74265 15.9429 6.74265C15.5733 6.74265 15.2735 7.04245 15.2735 7.41208V9.00045C14.6709 9.09322 14.0987 9.30807 13.603 9.62789L1.98004 13.0184C0.254953 14.1312 -0.453057 16.3314 0.297923 18.2493C0.953683 19.9207 2.53717 21.0008 4.33209 21.0008H6.97124V32.7815C6.97124 33.9842 7.95024 34.9632 9.15385 34.9632H22.3623C23.5659 34.9632 24.5444 33.9842 24.5444 32.7815V21.0008H27.6684C29.4638 21.0008 31.0473 19.9207 31.7031 18.2493C32.4546 16.3294 31.7402 14.1297 30.0049 13.0194V13.0194ZM23.875 32.7815C23.875 33.6155 23.1963 34.2932 22.3623 34.2932H9.15385C8.31938 34.2932 7.64067 33.6155 7.64067 32.7815V28.7356H23.875V32.7815ZM23.875 20.3309V27.9769H7.64067V17.9041C7.64067 17.0702 8.31938 16.3919 9.15385 16.3919H22.3623C23.1963 16.3919 23.875 17.0702 23.875 17.9041V20.3309V20.3309ZM30.4556 17.7601C30.0034 18.9149 28.9092 19.661 27.6685 19.661H24.5444V17.9041C24.5444 16.7015 23.5659 15.7225 22.3623 15.7225H9.15385C7.95024 15.7225 6.97124 16.7015 6.97124 17.9041V19.661H4.33209C3.09186 19.661 1.99616 18.911 1.54157 17.7508C1.02399 16.43 1.51374 14.9129 2.70563 14.1429L14.3277 10.7524C15.2925 10.1333 16.5992 10.1313 17.5635 10.748L29.2827 14.1468C30.4814 14.9149 30.9751 16.4344 30.4556 17.7601V17.7601Z" fill="#4D4D4D"/>
</svg>
