<svg width="24" height="24" viewBox="0 0 24 24" fill="none" xmlns="http://www.w3.org/2000/svg">
<path d="M9.762 1.53771C11.3886 1.53623 12.9791 2.01669 14.3323 2.91831C15.6855 3.81994 16.7405 5.10221 17.364 6.60293C17.9875 8.10364 18.1514 9.75536 17.835 11.3491C17.5186 12.9429 16.7361 14.4072 15.5864 15.5566C14.4368 16.7061 12.9717 17.4891 11.3764 17.8066C9.78119 18.1241 8.12751 17.9619 6.62459 17.3405C5.12167 16.719 3.83703 15.6663 2.93319 14.3154C2.02934 12.9645 1.54691 11.3762 1.5469 9.75135C1.55677 7.57729 2.42521 5.49497 3.96349 3.95696C5.50178 2.41895 7.58557 1.54955 9.762 1.53771ZM9.762 0C7.83126 0 5.94387 0.571907 4.33852 1.6434C2.73317 2.71489 1.48195 4.23784 0.743092 6.01967C0.00422985 7.8015 -0.18909 9.76217 0.187578 11.6537C0.564247 13.5453 1.49399 15.2828 2.85923 16.6466C4.22446 18.0103 5.96388 18.9391 7.85753 19.3153C9.75117 19.6916 11.714 19.4985 13.4977 18.7604C15.2815 18.0224 16.8061 16.7725 17.8788 15.1689C18.9515 13.5653 19.524 11.68 19.524 9.75135C19.524 7.16513 18.4955 4.68484 16.6648 2.8561C14.834 1.02737 12.351 0 9.762 0Z" fill="#A0A2A9"/>
<path d="M23.7818 22.7207L18.2475 17.1549L17.1812 18.2126L22.7155 23.7783C22.785 23.8483 22.8676 23.9038 22.9586 23.9419C23.0497 23.9799 23.1473 23.9997 23.246 24C23.3446 24.0004 23.4424 23.9813 23.5337 23.9439C23.625 23.9065 23.708 23.8515 23.778 23.7821C23.848 23.7126 23.9037 23.6301 23.9417 23.5392C23.9798 23.4482 23.9996 23.3507 23.9999 23.2522C24.0003 23.1536 23.9812 23.0559 23.9438 22.9647C23.9063 22.8735 23.8513 22.7906 23.7818 22.7207Z" fill="#A0A2A9"/>
</svg>
