<svg width="33" height="32" viewBox="0 0 33 32" fill="none" xmlns="http://www.w3.org/2000/svg">
<path d="M28.3137 12.8459V9.22726H4.68625V12.8459M28.3137 12.8459H4.68625M28.3137 12.8459V16.4645M4.68625 12.8459V16.4645M28.3137 16.4645H4.68625M28.3137 16.4645V20.0831M4.68625 16.4645V20.0831M28.3137 20.0831H4.68625M28.3137 20.0831V23.7017M4.68625 20.0831V23.7017M28.3137 23.7017H4.68625M28.3137 23.7017V27.3204M4.68625 23.7017V27.3204M28.3137 27.3204H4.68625M28.3137 27.3204V30.939H4.68625V27.3204M0.5 0.5H32.5V4.11862H0.5V0.5ZM1.77716 4.11862H31.2228V30.939H1.77716V4.11862Z" stroke="#4D4D4D" stroke-miterlimit="10"/>
</svg>
