<svg width="24" height="24" viewBox="0 0 24 24" fill="none" xmlns="http://www.w3.org/2000/svg">
<path d="M23.4397 9.71508H22.4999V9.66667H11.9999V14.3333H18.5933C17.6314 17.0499 15.0467 19 11.9999 19C8.13417 19 4.99992 15.8657 4.99992 12C4.99992 8.13425 8.13417 5 11.9999 5C13.7843 5 15.4077 5.67317 16.6438 6.77275L19.9437 3.47284C17.8601 1.53092 15.0729 0.333336 11.9999 0.333336C5.557 0.333336 0.333252 5.55708 0.333252 12C0.333252 18.4429 5.557 23.6667 11.9999 23.6667C18.4428 23.6667 23.6666 18.4429 23.6666 12C23.6666 11.2177 23.5861 10.4542 23.4397 9.71508Z" fill="#FFC107"/>
<path d="M1.67847 6.56974L5.51155 9.38083C6.54872 6.81299 9.06055 4.99999 12 4.99999C13.7844 4.99999 15.4078 5.67316 16.6439 6.77274L19.9438 3.47283C17.8601 1.53091 15.073 0.333328 12 0.333328C7.5188 0.333328 3.63263 2.86324 1.67847 6.56974Z" fill="#FF3D00"/>
<path d="M12 23.6667C15.0135 23.6667 17.7517 22.5134 19.8219 20.638L16.2111 17.5825C15.0004 18.5032 13.521 19.0012 12 19C8.96552 19 6.38894 17.0651 5.41827 14.3648L1.61377 17.2961C3.5446 21.0743 7.46577 23.6667 12 23.6667Z" fill="#4CAF50"/>
<path d="M23.4397 9.71507H22.5V9.66665H12V14.3333H18.5934C18.1333 15.6262 17.3045 16.756 16.2093 17.5831L16.2111 17.5819L19.8219 20.6374C19.5664 20.8696 23.6667 17.8333 23.6667 12C23.6667 11.2177 23.5862 10.4541 23.4397 9.71507Z" fill="#1976D2"/>
</svg>
