<svg width="32" height="23" viewBox="0 0 32 23" fill="none" xmlns="http://www.w3.org/2000/svg">
<path fill-rule="evenodd" clip-rule="evenodd" d="M31.7553 8.59913L16.0948 0.0571558C15.9542 -0.0193542 15.7842 -0.0193542 15.6426 0.0589858L0.241491 8.60097C0.015161 8.72651 -0.0668491 9.01194 0.0591409 9.23873C0.184681 9.46552 0.469651 9.54753 0.696901 9.42108L15.8722 1.00464L31.3063 9.42291C31.3773 9.46185 31.4543 9.48018 31.5303 9.48018C31.6966 9.48018 31.8574 9.39175 31.9426 9.23552C32.0668 9.00827 31.983 8.72329 31.7553 8.59913Z" fill="#4D4D4D"/>
<path fill-rule="evenodd" clip-rule="evenodd" d="M20.8045 12.5302C20.5697 12.3955 20.287 12.5357 20.1862 12.7872C19.4156 14.7112 18.4656 14.6773 17.9731 14.1846C17.6743 13.8868 17.6111 13.3255 17.976 12.597C19.8275 8.89281 16.5418 6.22356 14.7428 5.78097C14.4842 5.71774 14.2693 5.93354 14.2562 6.19904C14.2562 8.92808 12.8174 10.3 11.5778 11.604C10.3923 12.8513 9.26385 14.0391 9.26385 16.3017C9.26385 20.006 12.153 22.6528 15.8575 22.6528C19.5627 22.6528 22.7359 20.0193 22.7359 16.3017C22.7359 14.7319 21.9953 13.2137 20.8045 12.5302ZM15.8575 21.498C12.7326 21.498 10.4184 19.3116 10.4184 16.3017C10.4184 14.5025 11.2601 13.6155 12.4802 12.3309L12.4964 12.313C13.6049 11.1451 14.9128 9.73331 15.3054 7.26519C15.8868 7.60675 16.3885 8.06881 16.7766 8.6202C17.3825 9.50079 17.6597 10.6471 16.9429 12.0807C16.4787 13.0082 16.3447 14.1901 17.1561 15.0015C17.6619 15.5071 18.5125 15.8482 19.4318 15.4525C20.0107 15.2031 20.4735 14.7174 20.8466 14.0746C21.2833 14.618 21.5811 15.4141 21.5811 16.3017C21.5811 19.2633 19.05 21.498 15.8575 21.498Z" fill="#4D4D4D"/>
</svg>
