<svg width="24" height="24" viewBox="0 0 24 24" fill="#A0A2A9" xmlns="http://www.w3.org/2000/svg">
<g clip-path="url(#clip0_37_1849)">
<path d="M8.74133 14.1037H2.49682C1.1198 14.1037 0 12.9829 0 11.6059V2.802C0 1.42498 1.1198 0.304199 2.49682 0.304199H8.74132C10.1183 0.304199 11.2391 1.42498 11.2391 2.802V11.6059C11.2391 12.9829 10.1183 14.1037 8.74132 14.1037H8.74133ZM2.49682 1.30567C1.67237 1.30567 1.00147 1.97657 1.00147 2.802V11.6059C1.00147 12.4313 1.67237 13.1022 2.49682 13.1022H8.74132C9.56674 13.1022 10.2376 12.4313 10.2376 11.6059V2.802C10.2376 1.97657 9.56674 1.30567 8.74132 1.30567H2.49682V1.30567Z" />
<path d="M21.5032 24.0001H15.2587C13.8816 24.0001 12.7609 22.8793 12.7609 21.5023V12.6984C12.7609 11.3213 13.8816 10.2015 15.2587 10.2015H21.5032C22.8802 10.2015 24 11.3213 24 12.6984V21.5023C24 22.8793 22.8802 24.0001 21.5032 24.0001V24.0001ZM15.2587 11.203C14.4332 11.203 13.7623 11.8739 13.7623 12.6983V21.5023C13.7623 22.3277 14.4332 22.9986 15.2587 22.9986H21.5032C22.3276 22.9986 22.9985 22.3277 22.9985 21.5023V12.6984C22.9985 11.8739 22.3276 11.203 21.5032 11.203H15.2587V11.203Z" />
<path d="M21.5032 8.49686H15.2587C13.8816 8.49686 12.7609 7.37608 12.7609 5.99906V2.802C12.7609 1.42498 13.8816 0.304199 15.2587 0.304199H21.5032C22.8802 0.304199 24 1.42498 24 2.802V5.99906C24 7.37608 22.8802 8.49686 21.5032 8.49686ZM15.2587 1.30567C14.4332 1.30567 13.7623 1.97657 13.7623 2.802V5.99906C13.7623 6.82449 14.4332 7.49539 15.2587 7.49539H21.5032C22.3276 7.49539 22.9985 6.82449 22.9985 5.99906V2.802C22.9985 1.97657 22.3276 1.30567 21.5032 1.30567H15.2587V1.30567Z" />
<path d="M8.74133 24H2.49682C1.1198 24 0 22.8793 0 21.5022V18.3052C0 16.9282 1.1198 15.8074 2.49682 15.8074H8.74132C10.1183 15.8074 11.2391 16.9282 11.2391 18.3052V21.5022C11.2391 22.8793 10.1183 24 8.74132 24H8.74133ZM2.49683 16.8088C1.67238 16.8088 1.00148 17.4797 1.00148 18.3052V21.5022C1.00148 22.3277 1.67238 22.9986 2.49683 22.9986H8.74133C9.56676 22.9986 10.2377 22.3277 10.2377 21.5022V18.3052C10.2377 17.4797 9.56676 16.8088 8.74133 16.8088H2.49682H2.49683Z" />
</g>
<defs>
<clipPath id="clip0_37_1849">
<rect width="24" height="23.6958" fill="white" transform="translate(0 0.304199)"/>
</clipPath>
</defs>
</svg>
