<svg width="135" height="38" viewBox="0 0 135 38" fill="none" xmlns="http://www.w3.org/2000/svg">
<g clip-path="url(#clip0_22_780)">
<path d="M17.8465 22.7973C17.9355 22.7973 18.0246 22.7676 18.0246 22.6189V21.9943C18.0246 17.3542 18.0246 16.5214 17.9652 15.5696C17.9059 14.5583 17.6683 14.0824 16.6883 13.8742C16.4508 13.8147 15.946 13.785 15.6788 13.785C15.5599 13.785 15.4412 13.7254 15.4412 13.6065C15.4412 13.428 15.5897 13.3685 15.9163 13.3685C17.2526 13.3685 19.1233 13.4578 19.2718 13.4578C19.4203 13.4578 21.291 13.3685 22.1819 13.3685C22.5085 13.3685 22.657 13.428 22.657 13.6065C22.657 13.7254 22.5382 13.785 22.4194 13.785C22.2115 13.785 22.0334 13.8147 21.677 13.8742C20.8753 14.0229 20.6377 14.5286 20.5783 15.5696C20.519 16.5214 20.519 17.3542 20.519 21.9943V27.2291C20.519 30.0846 20.519 32.4344 20.6675 33.6836C20.7566 34.5462 20.9347 35.2005 21.8255 35.3195C22.2413 35.379 22.8945 35.4385 23.1617 35.4385C23.3399 35.4385 23.3993 35.5277 23.3993 35.6169C23.3993 35.7657 23.2508 35.8549 22.9242 35.8549C21.291 35.8549 19.4203 35.7657 19.2718 35.7657C19.1233 35.7657 17.2526 35.8549 16.3618 35.8549C16.0351 35.8549 15.8866 35.7954 15.8866 35.6169C15.8866 35.5277 15.946 35.4385 16.1242 35.4385C16.3914 35.4385 16.7477 35.379 17.015 35.3195C17.6089 35.2005 17.7574 34.5462 17.8761 33.6836C18.0246 32.4344 18.0246 30.0846 18.0246 27.2291V24.1061C18.0246 23.9871 17.9356 23.9276 17.8465 23.9276H5.25595C5.16687 23.9276 5.07779 23.9574 5.07779 24.1061V27.2291C5.07779 30.0846 5.07779 32.4344 5.22629 33.6836C5.31537 34.5462 5.49353 35.2005 6.38434 35.3195C6.80008 35.379 7.4534 35.4385 7.72064 35.4385C7.89881 35.4385 7.95813 35.5277 7.95813 35.6169C7.95813 35.7657 7.80972 35.8549 7.48306 35.8549C5.84986 35.8549 3.97907 35.7657 3.83066 35.7657C3.68216 35.7657 1.81137 35.8549 0.920564 35.8549C0.593904 35.8549 0.445405 35.7954 0.445405 35.6169C0.445405 35.5277 0.504822 35.4385 0.682984 35.4385C0.950227 35.4385 1.30655 35.379 1.57379 35.3195C2.16769 35.2005 2.31619 34.5462 2.43494 33.6836C2.58344 32.4344 2.58344 30.0846 2.58344 27.2291V21.9943C2.58344 17.3542 2.58344 16.5214 2.52411 15.5696C2.46469 14.5583 2.22711 14.0824 1.24722 13.8742C1.00964 13.8147 0.504822 13.785 0.237579 13.785C0.118836 13.785 0 13.7254 0 13.6065C0 13.428 0.148499 13.3685 0.475159 13.3685C1.81137 13.3685 3.68216 13.4578 3.83066 13.4578C3.97907 13.4578 5.84985 13.3685 6.74066 13.3685C7.06732 13.3685 7.21582 13.428 7.21582 13.6065C7.21582 13.7254 7.09698 13.785 6.97824 13.785C6.77042 13.785 6.59226 13.8147 6.23584 13.8742C5.43411 14.0229 5.19653 14.5286 5.13721 15.5696C5.07779 16.5214 5.07779 17.3542 5.07779 21.9943V22.6189C5.07779 22.7676 5.16687 22.7973 5.25595 22.7973H17.8465Z" fill="#404040"/>
<path d="M26.5776 26.2476C26.5776 22.2917 29.6361 16.3727 36.9707 16.3727C42.8502 16.3727 47.3341 19.8824 47.3341 25.861C47.3341 31.542 43.1472 36.1821 36.8223 36.1821C29.5471 36.1821 26.5776 30.7687 26.5776 26.2476ZM44.5428 26.6045C44.5428 20.626 40.8607 17.2948 36.7925 17.2948C32.665 17.2948 29.3392 19.8527 29.3392 25.4743C29.3392 31.304 32.5759 35.1708 37.5646 35.1708C39.5541 35.1708 44.5428 34.1595 44.5428 26.6045V26.6045Z" fill="#404040"/>
<path d="M70.0628 32.9651C70.1469 33.6392 70.3151 35.212 71.4087 35.4647C71.8853 35.5771 72.4461 35.6333 72.8387 35.6613C72.9508 35.6613 73.2032 35.6894 73.2032 35.8299C73.2032 35.9703 73.091 36.0546 72.7826 36.0546C72.2779 36.0546 69.2496 35.9422 68.3524 35.886C67.7355 35.8299 67.5112 35.7737 67.5112 35.6333C67.5112 35.549 67.6233 35.4367 67.7635 35.3805C67.9037 35.3243 67.9879 34.9873 67.9318 34.5941L66.698 22.5733L60.7537 34.6502C60.2209 35.7456 60.1368 35.9984 59.8845 35.9984C59.7162 35.9984 59.576 35.7456 59.0433 34.7907C58.5946 33.9762 56.3515 29.4824 56.1832 29.2296C56.015 28.8926 53.2671 23.4439 53.0428 22.8541L52.0054 33.6672C51.9773 34.0604 51.9773 34.3132 51.9773 34.7345C51.9773 35.0435 52.1175 35.4647 52.6783 35.5771C52.9867 35.6333 53.183 35.6333 53.4634 35.6613C53.6877 35.6894 53.7438 35.7737 53.7438 35.8299C53.7438 36.0265 53.5756 36.0545 53.2671 36.0545C52.3699 36.0545 51.1642 35.9703 50.9399 35.9703C50.6595 35.9703 49.4818 36.0545 48.7808 36.0545C48.5285 36.0545 48.3602 36.0265 48.3602 35.8299C48.3602 35.7737 48.4724 35.6613 48.7247 35.6613C48.921 35.6613 48.9491 35.6613 49.2575 35.6333C49.9304 35.5771 50.1828 34.903 50.323 33.7796L52.2016 18.3604C52.2577 17.8829 52.3699 17.6582 52.5101 17.6582C52.6503 17.6582 52.7344 17.7425 52.9307 18.1076L60.4452 32.6842L67.5953 18.1357C67.7355 17.8267 67.8477 17.6582 68.0159 17.6582C68.1841 17.6582 68.2683 17.911 68.2963 18.3604L70.0628 32.9651V32.9651Z" fill="#404040"/>
<path d="M85.9174 28.05L83.7023 21.843C83.5621 21.4498 83.534 21.4498 83.3938 21.843L81.2909 28.05L80.7862 29.4262L79.5524 32.937C79.272 33.7234 79.0758 34.4817 79.0758 34.9311C79.0758 35.4367 79.3842 35.6613 80.0011 35.6613H80.1973C80.4497 35.6613 80.5338 35.7456 80.5338 35.8579C80.5338 35.9984 80.3095 36.0545 80.1132 36.0545C79.4964 36.0545 78.2065 35.9703 77.8981 35.9703C77.6177 35.9703 76.384 36.0545 75.2063 36.0545C74.8979 36.0545 74.7577 35.9984 74.7577 35.8579C74.7577 35.7456 74.8698 35.6613 75.0942 35.6613C75.2344 35.6613 75.4867 35.6613 75.6549 35.6333C76.8606 35.5209 77.3373 34.5941 77.814 33.4145L83.4219 18.6131C83.7303 17.7986 83.8144 17.6582 84.0107 17.6582C84.1509 17.6582 84.2631 17.7705 84.5715 18.557C84.9641 19.4838 88.7774 29.2858 90.2635 32.7966C91.1888 35.0154 92.002 35.3805 92.3945 35.5209C92.759 35.6613 93.1516 35.6613 93.3479 35.6613C93.5441 35.6613 93.6843 35.7175 93.6843 35.8579C93.6843 35.9984 93.5722 36.0545 93.2637 36.0545C92.9833 36.0545 90.8804 36.0545 89.0017 35.9984C88.469 35.9703 88.3007 35.9422 88.3007 35.8018C88.3007 35.7175 88.3849 35.6333 88.497 35.6052C88.6092 35.549 88.7774 35.4086 88.6092 34.9873L86.3941 29.342L85.9174 28.05H85.9174Z" fill="#404040"/>
<path d="M127.2 28.1714L124.985 21.9644C124.844 21.5712 124.816 21.5712 124.676 21.9644L122.573 28.1714L122.069 29.5476L120.835 33.0583C120.554 33.8447 120.358 34.6031 120.358 35.0524C120.358 35.558 120.667 35.7827 121.283 35.7827H121.48C121.732 35.7827 121.816 35.8669 121.816 35.9793C121.816 36.1197 121.592 36.1759 121.396 36.1759C120.779 36.1759 119.489 36.0916 119.18 36.0916C118.9 36.0916 117.666 36.1759 116.489 36.1759C116.18 36.1759 116.04 36.1197 116.04 35.9793C116.04 35.8669 116.152 35.7827 116.377 35.7827C116.517 35.7827 116.769 35.7827 116.937 35.7546C118.143 35.6423 118.62 34.7154 119.096 33.5358L124.704 18.7345C125.013 17.92 125.097 17.7795 125.293 17.7795C125.433 17.7795 125.545 17.8919 125.854 18.6783C126.246 19.6051 130.06 29.4072 131.546 32.9179C132.471 35.1367 133.284 35.5018 133.677 35.6423C134.041 35.7827 134.434 35.7827 134.63 35.7827C134.826 35.7827 134.967 35.8389 134.967 35.9793C134.967 36.1197 134.855 36.1759 134.546 36.1759C134.266 36.1759 132.163 36.1759 130.284 36.1197C129.751 36.0916 129.583 36.0635 129.583 35.9231C129.583 35.8389 129.667 35.7546 129.779 35.7265C129.892 35.6703 130.06 35.5299 129.892 35.1086L127.676 29.4633L127.2 28.1714Z" fill="#404040"/>
<path d="M97.4057 18.8097C97.4057 17.9391 97.4898 17.6582 97.7141 17.6582C97.9104 17.6582 98.3871 18.2199 98.5833 18.4165C98.8357 18.6974 102.733 22.6856 106.659 26.7019C108.846 28.8364 111.65 31.7293 112.379 32.4034L112.07 20.7196C112.042 19.2029 111.874 18.6974 111.117 18.5008C110.64 18.4165 110.22 18.3884 110.023 18.3884C109.743 18.3884 109.687 18.2761 109.687 18.1638C109.687 18.0233 109.911 17.9952 110.192 17.9952C111.398 17.9952 112.575 18.0795 112.827 18.0795C113.108 18.0795 113.977 17.9952 115.071 17.9952C115.379 17.9952 115.463 18.0233 115.463 18.1638C115.463 18.2761 115.379 18.3604 115.211 18.3884C115.043 18.4165 114.818 18.4165 114.51 18.4727C113.865 18.6131 113.669 18.894 113.669 20.5791L113.612 34.6783C113.612 36.0826 113.556 36.2231 113.36 36.2231C113.164 36.2231 112.883 36.0265 111.509 34.7345C111.397 34.6783 107.5 30.8025 105.061 28.4152C102.144 25.3819 99.3404 22.4609 98.6394 21.7307L99.0039 32.7123C99.06 34.6502 99.2283 35.3805 99.9292 35.549C100.378 35.6613 100.855 35.6613 101.079 35.6613C101.303 35.6613 101.415 35.7456 101.415 35.8579C101.415 35.9984 101.275 36.0546 100.967 36.0546C99.4526 36.0546 98.4431 35.9703 98.2469 35.9703C98.0506 35.9703 97.0131 36.0546 95.8074 36.0546C95.5551 36.0546 95.3868 36.0265 95.3868 35.8579C95.3868 35.7456 95.499 35.6613 95.7794 35.6613C95.9757 35.6613 96.2841 35.6613 96.6486 35.549C97.2655 35.3524 97.4057 34.5941 97.4057 32.5438C97.4057 19.1468 97.4337 23.472 97.4057 18.8097V18.8097Z" fill="#404040"/>
<path d="M103.126 8.87315L106.851 4.72485L112.774 5.11255L112.558 16.327L112.04 16.9039L103.126 8.87315Z" fill="#5275FB"/>
<path d="M107.531 3.88797L111.093 0L120.007 8.03073L113.238 15.4901L113.454 4.27569L107.531 3.88797Z" fill="#404040"/>
<path d="M0.274414 37.9526H135" stroke="#404040" stroke-width="0.5" stroke-miterlimit="10"/>
</g>
<defs>
<clipPath id="clip0_22_780">
<rect width="135" height="38" fill="white"/>
</clipPath>
</defs>
</svg>
