<svg width="277" height="78" viewBox="0 0 277 78" fill="none" xmlns="http://www.w3.org/2000/svg">
<g clip-path="url(#clip0_17_278)">
<path d="M36.6183 46.7944C36.8011 46.7944 36.9839 46.7334 36.9839 46.4281V45.146C36.9839 35.6217 36.9839 33.9123 36.862 31.9586C36.7402 29.8827 36.2528 28.9058 34.242 28.4785C33.7547 28.3563 32.7189 28.2953 32.1705 28.2953C31.9267 28.2953 31.683 28.1732 31.683 27.929C31.683 27.5627 31.9877 27.4406 32.6578 27.4406C35.3997 27.4406 39.2381 27.6237 39.5428 27.6237C39.8475 27.6237 43.6859 27.4406 45.5139 27.4406C46.1841 27.4406 46.4888 27.5627 46.4888 27.929C46.4888 28.1732 46.245 28.2953 46.0014 28.2953C45.5748 28.2953 45.2092 28.3563 44.4781 28.4785C42.833 28.7838 42.3456 29.8217 42.2236 31.9586C42.1019 33.9123 42.1019 35.6217 42.1019 45.146V55.8913C42.1019 61.7524 42.1019 66.5758 42.4066 69.1399C42.5894 70.9105 42.955 72.2535 44.7828 72.4979C45.6358 72.62 46.9761 72.742 47.5245 72.742C47.89 72.742 48.012 72.9251 48.012 73.1083C48.012 73.4136 47.7073 73.5968 47.037 73.5968C43.6859 73.5968 39.8475 73.4136 39.5428 73.4136C39.2381 73.4136 35.3997 73.5968 33.5719 73.5968C32.9016 73.5968 32.597 73.4746 32.597 73.1083C32.597 72.9252 32.7189 72.742 33.0844 72.742C33.6328 72.742 34.3639 72.62 34.9122 72.4979C36.1308 72.2535 36.4355 70.9105 36.6792 69.1399C36.9839 66.5758 36.9839 61.7524 36.9839 55.8913V49.4807C36.9839 49.2366 36.8011 49.1144 36.6183 49.1144H10.7844C10.6017 49.1144 10.4189 49.1756 10.4189 49.4807V55.8913C10.4189 61.7524 10.4189 66.5758 10.7236 69.1399C10.9063 70.9105 11.2719 72.2535 13.0997 72.4979C13.9528 72.62 15.2933 72.742 15.8416 72.742C16.2072 72.742 16.3289 72.9251 16.3289 73.1083C16.3289 73.4136 16.0244 73.5968 15.3541 73.5968C12.003 73.5968 8.16445 73.4136 7.85994 73.4136C7.55525 73.4136 3.71667 73.5968 1.88886 73.5968C1.2186 73.5968 0.913905 73.4746 0.913905 73.1083C0.913905 72.9252 1.03582 72.742 1.40138 72.742C1.94972 72.742 2.68085 72.62 3.22919 72.4979C4.44779 72.2535 4.75249 70.9105 4.99613 69.1399C5.30083 66.5758 5.30083 61.7524 5.30083 55.8913V45.146C5.30083 35.6217 5.30083 33.9123 5.1791 31.9586C5.05718 29.8827 4.5697 28.9058 2.55912 28.4785C2.07164 28.3563 1.03582 28.2953 0.487478 28.2953C0.243834 28.2953 0 28.1732 0 27.929C0 27.5627 0.304698 27.4406 0.974955 27.4406C3.71667 27.4406 7.55525 27.6237 7.85994 27.6237C8.16445 27.6237 12.003 27.4406 13.8308 27.4406C14.5011 27.4406 14.8058 27.5627 14.8058 27.929C14.8058 28.1732 14.562 28.2953 14.3183 28.2953C13.8919 28.2953 13.5263 28.3563 12.795 28.4785C11.15 28.7838 10.6625 29.8217 10.5408 31.9586C10.4189 33.9123 10.4189 35.6217 10.4189 45.146V46.4281C10.4189 46.7334 10.6017 46.7944 10.7844 46.7944H36.6183Z" fill="white"/>
<path d="M54.5332 53.8766C54.5332 45.7565 60.8088 33.607 75.8582 33.607C87.9221 33.607 97.1224 40.8111 97.1224 53.083C97.1224 64.744 88.5315 74.2684 75.5537 74.2684C60.626 74.2684 54.5332 63.1566 54.5332 53.8766ZM91.3951 54.6092C91.3951 42.3375 83.8399 35.4997 75.4927 35.4997C67.0235 35.4997 60.1996 40.7501 60.1996 52.2892C60.1996 64.2556 66.8407 72.1925 77.0768 72.1925C81.1591 72.1925 91.3951 70.1167 91.3951 54.6092V54.6092Z" fill="white"/>
<path d="M143.758 67.6651C143.931 69.0487 144.276 72.2771 146.52 72.796C147.498 73.0266 148.649 73.1419 149.454 73.1995C149.684 73.1995 150.202 73.2572 150.202 73.5454C150.202 73.8337 149.972 74.0067 149.339 74.0067C148.304 74.0067 142.09 73.7761 140.249 73.6608C138.983 73.5455 138.523 73.4302 138.523 73.1419C138.523 72.969 138.753 72.7384 139.041 72.6231C139.328 72.5077 139.501 71.8159 139.386 71.0088L136.854 46.3345L124.658 71.1241C123.564 73.3725 123.392 73.8913 122.874 73.8913C122.529 73.8913 122.241 73.3725 121.148 71.4124C120.228 69.7405 115.625 60.5165 115.28 59.9976C114.934 59.3058 109.296 48.1217 108.836 46.911L106.707 69.1064C106.65 69.9135 106.65 70.4323 106.65 71.2971C106.65 71.9312 106.937 72.796 108.088 73.0266C108.721 73.1419 109.124 73.1419 109.699 73.1995C110.159 73.2572 110.274 73.4301 110.274 73.5454C110.274 73.949 109.929 74.0066 109.296 74.0066C107.455 74.0066 104.981 73.8337 104.521 73.8337C103.946 73.8337 101.529 74.0066 100.091 74.0066C99.5732 74.0066 99.228 73.949 99.228 73.5454C99.228 73.4301 99.4582 73.1995 99.976 73.1995C100.379 73.1995 100.436 73.1995 101.069 73.1419C102.45 73.0266 102.968 71.643 103.255 69.337L107.11 37.687C107.225 36.7069 107.455 36.2457 107.743 36.2457C108.031 36.2457 108.203 36.4187 108.606 37.1681L124.025 67.0886L138.696 37.2258C138.983 36.5916 139.213 36.2457 139.559 36.2457C139.904 36.2457 140.076 36.7646 140.134 37.687L143.758 67.6651V67.6651Z" fill="white"/>
<path d="M176.29 57.5763L171.745 44.8356C171.457 44.0285 171.399 44.0285 171.112 44.8356L166.797 57.5763L165.761 60.4012L163.23 67.6075C162.654 69.2217 162.252 70.7782 162.252 71.7007C162.252 72.7384 162.885 73.1996 164.15 73.1996H164.553C165.071 73.1996 165.243 73.3725 165.243 73.6031C165.243 73.8914 164.783 74.0067 164.38 74.0067C163.115 74.0067 160.468 73.8337 159.835 73.8337C159.26 73.8337 156.728 74.0067 154.312 74.0067C153.679 74.0067 153.392 73.8914 153.392 73.6031C153.392 73.3725 153.622 73.1996 154.082 73.1996C154.37 73.1996 154.887 73.1996 155.233 73.1419C157.707 72.9113 158.685 71.0089 159.663 68.5875L171.169 38.2059C171.802 36.534 171.975 36.2457 172.377 36.2457C172.665 36.2457 172.895 36.4763 173.528 38.0906C174.334 39.993 182.158 60.113 185.207 67.3192C187.106 71.8736 188.774 72.6231 189.58 72.9113C190.328 73.1996 191.133 73.1996 191.536 73.1996C191.939 73.1996 192.226 73.3149 192.226 73.6031C192.226 73.8914 191.996 74.0067 191.363 74.0067C190.788 74.0067 186.473 74.0067 182.618 73.8914C181.525 73.8337 181.18 73.7761 181.18 73.4878C181.18 73.3149 181.353 73.1419 181.583 73.0843C181.813 72.969 182.158 72.6807 181.813 71.8159L177.268 60.2282L176.29 57.5763H176.29Z" fill="white"/>
<path d="M260.995 57.8255L256.45 45.0848C256.162 44.2777 256.105 44.2777 255.817 45.0848L251.502 57.8255L250.466 60.6504L247.935 67.8567C247.36 69.4709 246.957 71.0274 246.957 71.9498C246.957 72.9875 247.59 73.4487 248.856 73.4487H249.258C249.776 73.4487 249.949 73.6217 249.949 73.8523C249.949 74.1405 249.488 74.2559 249.086 74.2559C247.82 74.2559 245.173 74.0829 244.541 74.0829C243.965 74.0829 241.434 74.2559 239.017 74.2559C238.385 74.2559 238.097 74.1405 238.097 73.8523C238.097 73.6217 238.327 73.4487 238.787 73.4487C239.075 73.4487 239.593 73.4488 239.938 73.3911C242.412 73.1605 243.39 71.258 244.368 68.8367L255.875 38.455C256.507 36.7832 256.68 36.4949 257.083 36.4949C257.37 36.4949 257.601 36.7255 258.233 38.3397C259.039 40.2422 266.863 60.3621 269.913 67.5684C271.811 72.1228 273.48 72.8722 274.285 73.1605C275.033 73.4487 275.838 73.4487 276.241 73.4487C276.644 73.4487 276.932 73.564 276.932 73.8523C276.932 74.1405 276.701 74.2558 276.069 74.2558C275.493 74.2558 271.178 74.2558 267.324 74.1405C266.23 74.0829 265.885 74.0252 265.885 73.737C265.885 73.564 266.058 73.3911 266.288 73.3334C266.518 73.2181 266.863 72.9299 266.518 72.0651L261.973 60.4774L260.995 57.8255Z" fill="white"/>
<path d="M199.862 38.6094C199.862 36.8222 200.035 36.2457 200.495 36.2457C200.898 36.2457 201.876 37.3987 202.278 37.8023C202.796 38.3788 210.793 46.5651 218.848 54.8091C223.335 59.1905 229.089 65.1285 230.585 66.5121L229.952 42.5296C229.894 39.4165 229.549 38.3788 227.996 37.9752C227.018 37.8023 226.155 37.7447 225.752 37.7447C225.177 37.7447 225.061 37.514 225.061 37.2834C225.061 36.9952 225.522 36.9375 226.097 36.9375C228.571 36.9375 230.988 37.1105 231.505 37.1105C232.08 37.1105 233.864 36.9375 236.108 36.9375C236.741 36.9375 236.913 36.9952 236.913 37.2834C236.913 37.514 236.741 37.687 236.395 37.7447C236.051 37.8023 235.59 37.8023 234.957 37.9176C233.634 38.2059 233.231 38.7824 233.231 42.2414L233.116 71.1818C233.116 74.0643 233.001 74.3526 232.599 74.3526C232.196 74.3526 231.62 73.949 228.801 71.2971C228.571 71.1818 220.574 63.2261 215.569 58.3258C209.585 52.0996 203.832 46.1039 202.394 44.605L203.141 67.1463C203.257 71.1242 203.602 72.6231 205.04 72.969C205.961 73.1996 206.939 73.1996 207.399 73.1996C207.859 73.1996 208.089 73.3725 208.089 73.6031C208.089 73.8914 207.802 74.0067 207.169 74.0067C204.062 74.0067 201.991 73.8337 201.588 73.8337C201.185 73.8337 199.057 74.0067 196.583 74.0067C196.065 74.0067 195.72 73.949 195.72 73.6031C195.72 73.3725 195.95 73.1996 196.525 73.1996C196.928 73.1996 197.561 73.1996 198.309 72.969C199.574 72.5654 199.862 71.0089 199.862 66.8004C199.862 39.3012 199.92 48.1794 199.862 38.6094V38.6094Z" fill="white"/>
<path d="M211.599 18.2134L219.242 9.69849L231.395 10.4943L230.952 33.5134L229.889 34.6975L211.599 18.2134Z" fill="white"/>
<path d="M220.637 7.98056L227.947 0L246.237 16.4841L232.347 31.7955L232.791 8.77641L220.637 7.98056Z" fill="white"/>
<path d="M0.562988 77.9027H277" stroke="white" stroke-width="0.5" stroke-miterlimit="10"/>
</g>
<defs>
<clipPath id="clip0_17_278">
<rect width="277" height="78" fill="white"/>
</clipPath>
</defs>
</svg>
