<svg width="29" height="36" viewBox="0 0 29 36" fill="none" xmlns="http://www.w3.org/2000/svg">
<path d="M14.3297 35.4307C14.0182 35.4307 13.815 35.126 13.8131 34.6533C13.8043 33.2217 13.8053 31.79 13.8072 30.3594L13.8053 28.1719C13.8033 27.7373 13.8004 27.3018 13.8102 26.8672C13.8199 26.4023 13.61 26.1797 13.1295 26.1465C11.6168 26.0381 10.1607 25.6768 8.80235 25.0742C8.62169 24.9932 8.4752 24.9561 8.34239 24.9561C8.00841 24.9561 7.81114 25.1963 7.66173 25.4317C6.78478 26.8145 5.89513 28.1885 5.0045 29.5625L3.48009 31.9199C3.28282 32.2275 3.13634 32.3858 2.88439 32.4014H2.87951C2.64904 32.4014 2.5006 32.3154 2.40295 32.1475C2.26428 31.9111 2.29065 31.6865 2.49572 31.3731C3.30431 30.1348 4.10705 28.8926 4.90978 27.6514L5.6549 26.499L5.9381 26.0527C6.15783 25.7031 6.37755 25.3525 6.6256 25.0244C6.77111 24.833 6.91369 24.6026 6.87267 24.3496C6.8297 24.0889 6.59826 23.9033 6.40294 23.7705C3.50646 21.8154 1.54747 19.1319 0.579699 15.7949C0.181249 14.4209 0.0640587 13.0059 0.00253868 11.8027C-0.00820131 11.6045 0.0152387 11.4736 0.0708987 11.415C0.130469 11.3525 0.265239 11.3252 0.507419 11.3252C3.02793 11.335 5.53672 11.3369 8.04551 11.3369L20.8062 11.3379C23.2662 11.3379 25.7271 11.335 28.1871 11.3232C28.443 11.3232 28.5846 11.3525 28.6461 11.416C28.7086 11.4795 28.735 11.6221 28.7291 11.8506C28.5914 16.8965 26.443 20.9004 22.3424 23.751C21.7672 24.1494 21.7066 24.4619 22.0934 25.0361C23.234 26.7344 24.3463 28.4512 25.4586 30.1689L26.2096 31.3272C26.4 31.6211 26.4596 31.9072 26.3727 32.1133C26.2984 32.291 26.1295 32.3594 26.0016 32.3848C25.9537 32.3945 25.9078 32.3994 25.8658 32.3994C25.6149 32.3994 25.4537 32.2266 25.2594 31.9268C24.7447 31.1318 24.2281 30.3389 23.7106 29.5469C22.8463 28.2217 21.9811 26.8965 21.1315 25.5615C20.9527 25.2822 20.7193 24.9961 20.3336 24.9961C20.1715 24.9961 19.9957 25.0449 19.7809 25.1475C18.9664 25.54 18.0885 25.7559 17.1861 25.9609C17.11 25.9785 17.0475 25.9873 16.9996 25.9873C16.9264 25.9873 16.8736 25.9873 16.8668 25.7109C16.8531 25.179 17.0914 24.8408 17.5817 24.6963C23.109 23.0703 26.4156 19.3896 27.4557 13.7412C27.4723 13.6562 27.4791 13.5684 27.4869 13.4805C27.4918 13.4131 27.4977 13.3457 27.5084 13.2793C27.5397 13.0967 27.5621 12.8311 27.402 12.6416C27.2379 12.4473 26.9615 12.4248 26.7672 12.4248C22.4869 12.4316 18.2115 12.4355 13.9352 12.4355C9.93614 12.4355 5.93614 12.4326 1.93614 12.4248C1.62462 12.4248 1.41563 12.498 1.29259 12.6494C1.12364 12.8584 1.18224 13.1338 1.22911 13.3545L1.25841 13.501C2.10314 18.8721 5.12657 22.5469 10.2447 24.4219C11.151 24.7549 12.0904 24.8965 13.0543 25.0234C13.1197 25.0322 13.1783 25.0361 13.2311 25.0361C13.4195 25.0361 13.5592 24.9854 13.6598 24.8818C13.8072 24.7275 13.818 24.499 13.8111 24.3174C13.7965 23.9385 13.8014 23.5596 13.8063 23.1797L13.8092 22.9404C13.818 22.1221 14.1022 22.0508 14.3688 22.0488C14.6442 22.0488 14.9498 22.1484 14.9518 22.9248C14.9567 24.8721 14.9557 26.8193 14.9557 28.7676L14.9528 34.5732C14.9528 35.0596 14.8385 35.2773 14.5465 35.3877C14.4703 35.416 14.398 35.4307 14.3297 35.4307Z" fill="#4D4D4D"/>
<path d="M19.3609 10.2207C19.2672 10.2207 19.152 10.2207 19.1236 9.85352C19.0309 8.60547 18.6432 7.45997 18.2203 6.29883C18.1783 6.18164 18.065 5.8711 17.7672 5.8711C17.6256 5.8711 17.4869 5.94727 17.359 6.03028C16.6861 6.46583 16.0953 6.69825 15.4996 6.7627C15.3932 6.77442 15.2906 6.78028 15.191 6.78028C14.3619 6.78028 13.7848 6.38966 13.4274 5.5879C13.2477 5.18458 13.1373 4.81056 13.0914 4.44532C13.0592 4.19239 12.86 2.74415 12.86 2.74415L12.5748 3.02442C11.0221 4.55469 10.0973 6.28907 9.74766 8.32813C9.70469 8.58106 9.6793 8.83692 9.65391 9.09278C9.63536 9.27637 9.6168 9.46094 9.59141 9.64454C9.57871 9.73341 9.5875 9.82227 9.59532 9.90821C9.60118 9.97071 9.61192 10.0869 9.59337 10.1123C9.38829 10.1738 9.20177 10.2002 9.01329 10.2002C8.81602 10.2002 8.62461 10.1709 8.44688 10.1152C8.442 10.0947 8.45762 9.97852 8.46543 9.91602L8.48008 9.7793C8.71153 6.02051 10.4352 2.89453 13.6041 0.48535C13.8287 0.31543 14.0631 0.1582 14.2975 0L14.2643 0.35742C14.2164 0.85547 14.1676 1.35254 14.1246 1.85058C14.023 3.0166 14.0924 3.95507 14.3434 4.8037C14.4771 5.25878 14.6393 5.66796 15.1314 5.66796C15.2867 5.66796 15.4703 5.6289 15.7486 5.53612C16.7223 5.21483 17.4996 4.60057 18.1949 3.98436C18.3297 3.86522 18.3785 3.85252 18.3883 3.85155C18.3863 3.8535 18.4293 3.88378 18.4986 4.03905C19.234 5.70604 20.0377 7.66014 20.2564 9.75292C20.2799 9.93651 20.3023 10.1152 20.274 10.1562C20.2555 10.1572 20.2389 10.1572 20.2242 10.1572C20.1813 10.1572 20.1559 10.1533 20.1266 10.1474L19.9889 10.1347C19.8814 10.1347 19.7623 10.1572 19.6422 10.1806C19.5465 10.2002 19.4498 10.2207 19.3609 10.2207Z" fill="#4D4D4D"/>
<path d="M16.148 10.2178C16.0426 10.2178 15.9244 10.2022 15.8082 10.1865C15.6754 10.1689 15.5436 10.1523 15.4283 10.1523C15.0709 10.1641 14.7535 10.167 14.4361 10.167L13.3463 10.1631C13.1041 10.1631 12.8619 10.1641 12.6188 10.1699H12.6139C12.4078 10.1699 12.3561 10.1416 12.3404 10.124C12.3258 10.1094 12.2945 10.0527 12.3102 9.86524C12.3736 9.07618 12.7369 8.26661 13.2076 7.81836C13.2281 7.8877 13.2486 7.95606 13.2701 8.02539C13.3795 8.39258 13.4889 8.75977 13.6373 9.11035C13.8238 9.5498 14.066 9.77344 14.359 9.77344C14.5983 9.77344 14.8356 9.62207 15.0846 9.31153C15.1979 9.16993 15.2574 9.14942 15.2819 9.14942C15.3033 9.14942 15.3522 9.16114 15.4459 9.23829L15.5338 9.29688C15.6451 9.38184 15.7457 9.4502 15.8483 9.51954C16.1998 9.7588 16.4088 9.92091 16.3414 10.1484C16.3346 10.1729 16.3219 10.2178 16.148 10.2178Z" fill="#4D4D4D"/>
</svg>
