<svg width="28" height="24" viewBox="0 0 28 24" fill="none" xmlns="http://www.w3.org/2000/svg">
<path d="M24.3148 6.01605C23.6704 6.01605 23.0403 6.20717 22.5044 6.56524C21.9686 6.92331 21.5508 7.43225 21.3042 8.02769C21.0575 8.62314 20.993 9.27836 21.1188 9.91049C21.2445 10.5426 21.5549 11.1232 22.0106 11.579C22.4663 12.0347 23.047 12.3451 23.6791 12.4708C24.3112 12.5966 24.9664 12.532 25.5619 12.2854C26.1574 12.0387 26.6662 11.6211 27.0243 11.0852C27.3824 10.5493 27.5735 9.91926 27.5735 9.27475C27.5703 8.41151 27.2258 7.58457 26.6155 6.97415C26.005 6.36375 25.1781 6.01937 24.3148 6.01606L24.3148 6.01605ZM24.3148 11.4076C23.893 11.4076 23.4806 11.2825 23.1299 11.0481C22.7792 10.8137 22.5057 10.4806 22.3444 10.0909C22.1829 9.70121 22.1407 9.27238 22.223 8.85864C22.3053 8.44492 22.5085 8.06488 22.8068 7.7666C23.1049 7.46832 23.485 7.26519 23.8988 7.18289C24.3124 7.10059 24.7412 7.14284 25.1311 7.30426C25.5208 7.46568 25.8538 7.73905 26.0883 8.08979C26.3226 8.44053 26.4477 8.8529 26.4477 9.27473C26.4477 9.84038 26.2229 10.3829 25.823 10.7829C25.423 11.1828 24.8805 11.4075 24.3148 11.4075V11.4076ZM6.51738 9.27474C6.51738 8.63023 6.32626 8.0002 5.96819 7.46431C5.61012 6.92842 5.10119 6.51074 4.50574 6.2641C3.91029 6.01747 3.25508 5.95293 2.62296 6.07867C1.99084 6.20441 1.41019 6.51477 0.954446 6.9705C0.498706 7.42624 0.188346 8.00689 0.0626165 8.63901C-0.0631235 9.27113 0.00141647 9.92634 0.248056 10.5218C0.494696 11.1172 0.912376 11.6262 1.44827 11.9842C1.98416 12.3423 2.61419 12.5334 3.2587 12.5334C4.12194 12.5301 4.94888 12.1857 5.5593 11.5753C6.1697 10.9649 6.5141 10.138 6.51739 9.27474H6.51738ZM3.25869 11.4076C2.83686 11.4076 2.4245 11.2825 2.07375 11.0481C1.72301 10.8137 1.44964 10.4806 1.28822 10.0909C1.1268 9.70121 1.08455 9.27238 1.16685 8.85864C1.24915 8.44492 1.45228 8.06488 1.75056 7.7666C2.04885 7.46832 2.42887 7.26519 2.8426 7.18289C3.25634 7.10059 3.68517 7.14284 4.0749 7.30426C4.46461 7.46568 4.79771 7.73905 5.03208 8.08979C5.26643 8.44053 5.39152 8.8529 5.39152 9.27473C5.39152 9.84038 5.16681 10.3829 4.76683 10.7829C4.36685 11.1828 3.82435 11.4075 3.2587 11.4075L3.25869 11.4076ZM9.27473 6.51738C9.91924 6.51738 10.5493 6.32626 11.0852 5.96819C11.621 5.61012 12.0387 5.10119 12.2854 4.50574C12.532 3.91029 12.5966 3.25508 12.4708 2.62296C12.3451 1.99084 12.0347 1.41019 11.579 0.954446C11.1232 0.498706 10.5426 0.188346 9.91047 0.0626165C9.27835 -0.0631235 8.62312 0.00141647 8.02767 0.248056C7.43223 0.494696 6.92329 0.912376 6.56522 1.44827C6.20715 1.98416 6.01603 2.61419 6.01603 3.2587C6.01934 4.12194 6.36372 4.94888 6.97412 5.5593C7.58454 6.1697 8.41148 6.5141 9.27472 6.51739L9.27473 6.51738ZM9.27473 1.12587C9.69657 1.12587 10.1089 1.25096 10.4597 1.48531C10.8104 1.71968 11.0838 2.05278 11.2452 2.44249C11.4066 2.83222 11.4489 3.26105 11.3666 3.67479C11.2843 4.08851 11.0811 4.46855 10.7829 4.76683C10.4846 5.0651 10.1045 5.26824 9.69082 5.35054C9.27708 5.43284 8.84825 5.39059 8.45852 5.22917C8.06881 5.06775 7.73571 4.79438 7.50134 4.44364C7.26699 4.0929 7.1419 3.68053 7.1419 3.2587C7.1419 2.69304 7.36661 2.15055 7.76659 1.75057C8.16657 1.35059 8.70907 1.12588 9.27472 1.12588L9.27473 1.12587ZM18.2988 6.51738C18.9433 6.51738 19.5733 6.32626 20.1092 5.96819C20.6452 5.61012 21.0628 5.10119 21.3094 4.50574C21.5561 3.91029 21.6206 3.25508 21.4948 2.62296C21.3691 1.99084 21.0588 1.41019 20.6031 0.954446C20.1473 0.498706 19.5667 0.188346 18.9345 0.0626165C18.3024 -0.0631235 17.6472 0.00141647 17.0517 0.248056C16.4563 0.494696 15.9474 0.912376 15.5893 1.44827C15.2312 1.98416 15.0401 2.61419 15.0401 3.2587C15.0434 4.12194 15.3878 4.94888 15.9982 5.5593C16.6087 6.1697 17.4355 6.5141 18.2988 6.51739L18.2988 6.51738ZM18.2988 1.12587C18.7206 1.12587 19.133 1.25096 19.4837 1.48531C19.8344 1.71968 20.1079 2.05278 20.2692 2.44249C20.4307 2.83222 20.4729 3.26105 20.3906 3.67479C20.3084 4.08851 20.1051 4.46855 19.807 4.76683C19.5087 5.0651 19.1286 5.26824 18.7148 5.35054C18.3012 5.43284 17.8724 5.39059 17.4825 5.22917C17.0928 5.06775 16.7598 4.79438 16.5253 4.44364C16.291 4.0929 16.166 3.68053 16.166 3.2587C16.166 2.69304 16.3907 2.15055 16.7907 1.75057C17.1906 1.35059 17.7331 1.12588 18.2988 1.12588V1.12587ZM21.0687 14.614C19.9849 14.0137 19.1828 13.0089 18.8377 11.819C18.5174 10.7276 17.8521 9.76932 16.9417 9.08761C16.0311 8.4059 14.9242 8.03748 13.7868 8.03748C12.6493 8.03748 11.5424 8.4059 10.6319 9.08761C9.72137 9.76931 9.05613 10.7276 8.73579 11.819C8.39071 13.0089 7.58862 14.0137 6.50484 14.614C5.43287 15.1986 4.62642 16.1729 4.25212 17.3351C3.87781 18.4974 3.96421 19.7591 4.49351 20.8595C5.0228 21.9599 5.95453 22.815 7.09623 23.2481C8.23792 23.6813 9.50236 23.6593 10.6283 23.1868C11.6294 22.7711 12.7027 22.557 13.7868 22.557C14.8708 22.557 15.9441 22.7711 16.9452 23.1868C18.0712 23.6593 19.3355 23.6813 20.4773 23.2481C21.619 22.815 22.5507 21.9599 23.08 20.8595C23.6093 19.7591 23.6957 18.4974 23.3214 17.3351C22.9471 16.1729 22.1407 15.1986 21.0687 14.614H21.0687ZM19.0505 22.3722C18.589 22.3719 18.1323 22.2778 17.7081 22.0958C16.4633 21.586 15.1315 21.3224 13.7864 21.3194C12.4372 21.3237 11.1013 21.5873 9.85157 22.0958C9.43255 22.2794 8.97986 22.3735 8.5224 22.3722C7.76044 22.3718 7.02041 22.1171 6.41961 21.6485C5.8188 21.1799 5.39161 20.5241 5.20574 19.7851C5.01988 19.0462 5.08597 18.2665 5.39355 17.5692C5.70114 16.8722 6.23261 16.2977 6.90371 15.9369C8.40651 15.1016 9.51817 13.7061 9.99633 12.0546C10.2355 11.2346 10.7342 10.5142 11.4176 10.0017C12.101 9.48913 12.9322 9.21206 13.7864 9.21206C14.6407 9.21206 15.4718 9.48912 16.1553 10.0017C16.8387 10.5142 17.3374 11.2346 17.5765 12.0546C18.0547 13.7061 19.1664 15.1016 20.6692 15.9369H20.6823C21.3544 16.2982 21.8865 16.8739 22.1939 17.5723C22.5012 18.2708 22.5663 19.0519 22.3787 19.7916C22.1911 20.5313 21.7617 21.1869 21.1587 21.6545C20.5556 22.1221 19.8135 22.3748 19.0505 22.3721V22.3722Z" fill="#4D4D4D"/>
</svg>
