<svg width="32" height="19" viewBox="0 0 32 19" fill="none" xmlns="http://www.w3.org/2000/svg">
<path d="M4.2483 3.09259C4.5092 3.09259 4.72032 2.88147 4.72032 2.62057C4.72032 1.69634 5.47261 0.94406 6.39683 0.94406C7.32105 0.94406 8.07334 1.69635 8.07334 2.62057V9.65207C8.07334 9.91297 8.28446 10.1241 8.54536 10.1241C8.80626 10.1241 9.01738 9.91297 9.01738 9.65207V2.62056C9.01738 1.17545 7.84193 0 6.39682 0C4.95171 0 3.77628 1.17545 3.77628 2.62056C3.77628 2.88146 3.9874 3.09259 4.2483 3.09259Z" fill="#4D4D4D"/>
<path d="M9.97759 7.81283C9.71669 7.81283 9.50557 8.02395 9.50557 8.28485C9.50557 8.54575 9.71669 8.75687 9.97759 8.75687H14.584V9.65206C14.584 9.91296 14.7951 10.1241 15.056 10.1241C15.3169 10.1241 15.528 9.91296 15.528 9.65206V2.62056C15.528 1.17545 14.3526 0 12.9074 0C11.4623 0 10.2869 1.17545 10.2869 2.62056C10.2869 2.88146 10.498 3.09258 10.7589 3.09258C11.0198 3.09258 11.2309 2.88146 11.2309 2.62056C11.2309 1.69633 11.9832 0.94405 12.9074 0.94405C13.8317 0.94405 14.5839 1.69634 14.5839 2.62056V5.20839H9.97757C9.71667 5.20839 9.50555 5.41951 9.50555 5.68041C9.50555 5.94131 9.71667 6.15243 9.97757 6.15243H14.5839V7.81281L9.97759 7.81283Z" fill="#4D4D4D"/>
<path d="M4.2483 14.4862C5.40393 14.4862 6.01839 13.7076 6.56002 13.0208C7.1542 12.2676 7.71565 11.5563 9.00081 11.5563C10.1334 11.5563 10.4445 12.0749 10.8751 12.7921C11.3277 13.5467 11.8915 14.4862 13.5583 14.4862C15.2639 14.4862 15.9115 13.5112 16.432 12.7276C16.8832 12.0477 17.2096 11.5563 18.1159 11.5563C19.1927 11.5563 19.826 12.2653 20.4967 13.0162C21.1421 13.739 21.8095 14.4862 22.8688 14.4862C23.9553 14.4862 24.6855 13.7025 25.3921 12.9443C26.0568 12.2307 26.6851 11.5563 27.5563 11.5563C29.0498 11.5563 30.6434 13.5154 31.1315 14.27C31.2731 14.4885 31.5653 14.5521 31.7838 14.4106C32.0028 14.2695 32.0659 13.9773 31.9249 13.7583C31.8419 13.6302 29.8708 10.6123 27.5563 10.6123C26.2744 10.6123 25.4387 11.5093 24.7011 12.3007C24.0807 12.9668 23.5446 13.5421 22.8688 13.5421C22.2318 13.5421 21.7542 13.0069 21.2006 12.3874C20.4944 11.5964 19.6153 10.6123 18.1158 10.6123C16.7035 10.6123 16.1166 11.4959 15.6455 12.2053C15.1496 12.9521 14.7577 13.5421 13.5583 13.5421C12.4257 13.5421 12.115 13.024 11.6845 12.3063C11.2318 11.5517 10.6681 10.6123 9.0008 10.6123C7.25791 10.6123 6.45998 11.6231 5.81925 12.4358C5.26149 13.1425 4.91392 13.5421 4.2483 13.5421C2.81609 13.5421 1.32903 11.5923 0.876829 10.8413C0.742229 10.6182 0.452749 10.544 0.229179 10.68C0.00560908 10.8141 -0.0667609 11.1036 0.0673791 11.3272C0.144819 11.4563 1.98867 14.4862 4.2483 14.4862Z" fill="#4D4D4D"/>
<path d="M27.5563 14.2202C26.2744 14.2202 25.4387 15.1172 24.7011 15.9087C24.0807 16.5748 23.5446 17.15 22.8688 17.15C22.2318 17.15 21.7542 16.6149 21.2006 15.9953C20.4944 15.2043 19.6154 14.2202 18.1159 14.2202C16.7035 14.2202 16.1167 15.1038 15.6456 15.8133C15.1496 16.56 14.7577 17.15 13.5583 17.15C12.4257 17.15 12.1151 16.6319 11.6845 15.9142C11.2319 15.1596 10.6681 14.2202 9.00081 14.2202C7.25792 14.2202 6.45999 15.2311 5.81926 16.0437C5.2615 16.7504 4.91393 17.15 4.24831 17.15C2.8161 17.15 1.32904 15.2002 0.876839 14.4493C0.742239 14.2262 0.452759 14.152 0.229189 14.2879C0.00561906 14.4221 -0.0667509 14.7116 0.0673891 14.9351C0.144829 15.0642 1.98868 18.0941 4.24831 18.0941C5.40394 18.0941 6.0184 17.3155 6.56003 16.6287C7.15421 15.8755 7.71566 15.1642 9.00082 15.1642C10.1334 15.1642 10.4445 15.6828 10.8751 16.4001C11.3277 17.1547 11.8915 18.0941 13.5583 18.0941C15.2639 18.0941 15.9115 17.1192 16.432 16.3355C16.8832 15.6556 17.2096 15.1642 18.1159 15.1642C19.1927 15.1642 19.826 15.8732 20.4967 16.6241C21.1421 17.3469 21.8095 18.0941 22.8688 18.0941C23.9553 18.0941 24.6855 17.3105 25.3921 16.5522C26.0568 15.8386 26.6851 15.1642 27.5563 15.1642C29.0498 15.1642 30.6434 17.1233 31.1315 17.8779C31.2731 18.0964 31.5653 18.1596 31.7838 18.0185C32.0028 17.8775 32.0659 17.5852 31.9249 17.3662C31.8419 17.2381 29.8708 14.2202 27.5563 14.2202Z" fill="#4D4D4D"/>
</svg>
