<svg width="33" height="34" viewBox="0 0 33 34" fill="none" xmlns="http://www.w3.org/2000/svg">
<path d="M3.02632 3.31504V2.81504H2.52632V3.31504H3.02632ZM29.9737 3.31504H30.4737V2.81504H29.9737V3.31504ZM29.9737 33.2914V33.7914H30.4737V33.2914H29.9737ZM3.02632 33.2914H2.52632V33.7914H3.02632V33.2914ZM33 0.5C33 0.223858 32.7761 0 32.5 0C32.2238 0 32 0.223858 32 0.5H33ZM1 0.5C1 0.223858 0.776142 0 0.5 0C0.223858 0 0 0.223858 0 0.5H1ZM13.8241 14.2113C13.8241 13.9351 13.6002 13.7113 13.3241 13.7113C13.0479 13.7113 12.8241 13.9351 12.8241 14.2113H13.8241ZM12.8241 17.1947C12.8241 17.4709 13.0479 17.6947 13.3241 17.6947C13.6002 17.6947 13.8241 17.4709 13.8241 17.1947H12.8241ZM20.1759 14.2113C20.1759 13.9351 19.9521 13.7113 19.6759 13.7113C19.3998 13.7113 19.1759 13.9351 19.1759 14.2113H20.1759ZM19.1759 17.1947C19.1759 17.4709 19.3998 17.6947 19.6759 17.6947C19.9521 17.6947 20.1759 17.4709 20.1759 17.1947H19.1759ZM8.19061 29.7819C7.91447 29.7819 7.69061 30.0057 7.69061 30.2819C7.69061 30.558 7.91447 30.7819 8.19061 30.7819V29.7819ZM11.3357 30.7819C11.6118 30.7819 11.8357 30.558 11.8357 30.2819C11.8357 30.0057 11.6118 29.7819 11.3357 29.7819V30.7819ZM21.6643 29.7819C21.3881 29.7819 21.1643 30.0057 21.1643 30.2819C21.1643 30.558 21.3881 30.7819 21.6643 30.7819V29.7819ZM24.8094 30.7819C25.0855 30.7819 25.3094 30.558 25.3094 30.2819C25.3094 30.0057 25.0855 29.7819 24.8094 29.7819V30.7819ZM3.02632 3.81504H16.5V2.81504H3.02632V3.81504ZM16 3.31504V27.1108H17V3.31504H16ZM16.5 26.6108H3.02632V27.6108H16.5V26.6108ZM3.52632 27.1108V3.31504H2.52632V27.1108H3.52632ZM16.5 3.81504H29.9737V2.81504H16.5V3.81504ZM29.4737 3.31504V27.1108H30.4737V3.31504H29.4737ZM29.9737 26.6108H16.5V27.6108H29.9737V26.6108ZM3.02632 27.6108H29.9737V26.6108H3.02632V27.6108ZM29.4737 27.1108V33.2914H30.4737V27.1108H29.4737ZM29.9737 32.7914H3.02632V33.7914H29.9737V32.7914ZM3.52632 33.2914V27.1108H2.52632V33.2914H3.52632ZM32 0.5C32 1.66479 30.716 2.81504 28.8428 2.81504V3.81504C31.0092 3.81504 33 2.44461 33 0.5H32ZM28.8428 2.81504H4.15714V3.81504H28.8428V2.81504ZM4.15714 2.81504C2.28398 2.81504 1 1.66479 1 0.5H0C0 2.44461 1.99074 3.81504 4.15714 3.81504V2.81504ZM12.8241 14.2113V17.1947H13.8241V14.2113H12.8241ZM19.1759 14.2113V17.1947H20.1759V14.2113H19.1759ZM8.19061 30.7819H11.3357V29.7819H8.19061V30.7819ZM21.6643 30.7819H24.8094V29.7819H21.6643V30.7819Z" fill="#4D4D4D"/>
</svg>
