<svg width="32" height="36" viewBox="0 0 32 36" fill="none" xmlns="http://www.w3.org/2000/svg">
<path d="M31.4695 27.5225C31.0711 26.5967 30.6668 25.6738 30.2625 24.75C30.2625 24.75 27.6658 18.794 26.9002 17.0254C26.6297 16.4004 26.3152 16.1895 25.6551 16.1895L10.8377 16.1914C9.18438 16.1914 7.53008 16.1895 5.86797 16.1816C5.36797 16.1816 5.02227 16.3906 4.7791 16.8389C4.56816 17.2275 4.39336 17.6504 4.23613 18.0488C3.86308 18.9941 3.45293 19.9238 3.04277 20.8535C2.82597 21.3467 2.60918 21.8389 2.39726 22.334C1.76542 23.8115 1.12382 25.2852 0.481236 26.7588L0.106236 27.6211C-0.0802836 28.0498 -0.0216936 28.4307 0.285926 28.7871C0.513466 29.0498 0.813266 29.167 1.26347 29.167L8.62382 29.1631L15.3465 29.168C15.5838 29.1758 15.6814 29.3144 15.7215 29.4297C15.8494 29.792 15.7029 30.3613 15.409 30.6484C15.1873 30.8633 14.9295 30.8662 14.6932 30.8662H6.71269C6.31425 30.8662 5.34843 30.9795 4.98906 32.0312C4.7957 32.5986 4.87285 33.1328 5.21172 33.5781C5.575 34.0566 6.08086 34.2793 6.81914 34.2793C9.16094 34.2725 11.5037 34.2715 13.8455 34.2715C15.7977 34.2705 17.7488 34.2705 19.701 34.2656C20.0486 34.2656 20.3094 34.3555 20.452 34.792C20.6678 35.4551 21.116 35.835 21.785 35.9238C22.0955 35.9649 22.407 35.9776 22.7186 35.9776C22.9646 35.9776 23.2107 35.9697 23.4568 35.9619L23.9236 35.9492C24.0086 35.9483 24.2107 35.919 24.2508 35.6885C24.3191 35.3154 24.5818 35.2715 24.7977 35.2715C24.7977 35.2715 25.3416 35.2774 25.6141 35.2774L26.494 35.2734C26.6912 35.2725 26.8484 35.2217 26.9363 35.1318C26.9979 35.0693 27.0281 34.9834 27.0272 34.8779C27.0242 34.5391 26.741 34.4658 26.5047 34.4648L25.5467 34.458C25.3123 34.458 25.0779 34.46 24.8094 34.4688C24.3182 34.4688 24.3065 34.084 24.2986 33.8506C24.2938 33.708 24.3045 33.5283 24.4266 33.4014C24.5154 33.3086 24.6424 33.2637 24.8475 33.2637H24.8504C25.075 33.2705 25.2996 33.2725 25.5233 33.2725L26.6082 33.2686C26.7811 33.2686 26.8817 33.2236 26.9539 33.1123C27.0428 32.9775 27.0525 32.8486 26.9861 32.71C26.9149 32.5596 26.8006 32.4961 26.6033 32.4961L24.7772 32.4951C24.6444 32.4951 24.369 32.4951 24.2742 32.1621C24.1912 31.8672 24.118 31.8105 23.8123 31.8086L23.0252 31.8047C22.6707 31.8047 22.3153 31.8066 21.9598 31.8135C21.7957 31.8154 21.6033 31.8281 21.4227 31.9014C20.8963 32.1182 20.5662 32.5 20.4061 33.0918C20.3778 33.1972 20.3113 33.4433 20.0096 33.4453C19.8807 33.4453 19.3612 33.4599 19.2293 33.4599H6.90019C6.75078 33.4599 6.60136 33.457 6.4539 33.4394C6.20683 33.4111 5.99296 33.2851 5.85234 33.083C5.70976 32.8799 5.66289 32.6211 5.72246 32.375C5.83965 31.8867 6.14726 31.6787 6.75078 31.6787L14.7498 31.6797C14.824 31.6797 16.5623 31.6592 16.5623 29.876C16.5506 29.6133 16.5428 29.4238 16.6678 29.292C16.7908 29.1631 16.9666 29.1631 17.2566 29.1631L30.3572 29.164C30.8377 29.164 31.2322 28.9844 31.4393 28.6699C31.6434 28.3594 31.6541 27.9522 31.4695 27.5225ZM21.9666 32.625C22.1043 32.6152 22.241 32.6123 22.3787 32.6123L23.0779 32.6231C23.2566 32.624 23.3543 32.7051 23.4051 32.7725C23.4627 32.8496 23.491 32.9482 23.49 33.0723L23.491 34.7031C23.492 34.8437 23.4539 34.9551 23.3758 35.0342C23.2986 35.1123 23.1893 35.1523 23.0428 35.1523L22.4148 35.1533C22.2762 35.1533 22.1375 35.1514 21.9988 35.1455C21.5311 35.123 21.1883 34.7803 21.1648 34.3125C21.1512 34.0352 21.1521 33.7559 21.1639 33.4785C21.1844 32.9766 21.4842 32.6582 21.9666 32.625ZM19.9266 17.1377C20.0398 17.0069 20.2176 16.9912 20.3406 16.9912H20.3504C21.2234 16.999 22.0975 17.003 22.9715 17.003C23.8152 17.003 24.659 16.999 25.5125 16.9922C25.8748 16.9922 26.0975 17.1407 26.2332 17.4746C26.4139 17.9209 26.6043 18.3633 26.7947 18.8057L27.0516 19.4043C27.1619 19.6621 27.2225 19.8047 27.1307 19.9444C27.0379 20.085 26.8767 20.085 26.6101 20.086L23.2185 20.085C22.1844 20.085 21.2205 20.086 20.7801 20.0908C20.3758 20.0908 20.158 19.9043 20.1131 19.5205C20.0476 18.9776 19.9695 18.4365 19.8914 17.8945L19.8435 17.5645C19.825 17.4326 19.8172 17.2647 19.9266 17.1377ZM12.2928 19.5205C12.3963 18.8389 12.4969 18.1572 12.5867 17.4736C12.6277 17.1582 12.8006 16.999 13.1004 16.999H18.5096C18.7986 16.999 18.9783 17.1592 19.0184 17.4619C19.1141 18.1602 19.2098 18.8594 19.326 19.5547C19.3582 19.7471 19.3211 19.9912 18.9568 20.0654C18.867 20.083 18.7752 20.0869 18.6824 20.0869L15.4979 20.085C14.3631 20.085 13.2566 20.0859 12.7811 20.0908C12.6619 20.0908 12.491 20.0752 12.3768 19.9434C12.2635 19.8115 12.2742 19.6397 12.2928 19.5205ZM12.0193 21.3848C12.0613 21.0303 12.2547 20.8574 12.6287 20.8574C13.9598 20.8721 15.2898 20.8809 16.6199 20.8828H16.7957C17.4998 20.8828 18.2049 20.877 18.9559 20.8545C19.3504 20.8545 19.5545 21.043 19.5984 21.4483C19.6561 22 19.743 22.5869 19.8709 23.2969C19.8924 23.419 19.909 23.5977 19.7977 23.7315C19.6883 23.8623 19.5154 23.8789 19.3641 23.8789C19.3641 23.8789 17.5438 23.875 16.2029 23.875H12.285C12.0955 23.874 11.9168 23.874 11.8064 23.7461C11.6961 23.6172 11.7225 23.4443 11.7518 23.2442L11.8133 22.8399C11.8865 22.3545 11.9607 21.8701 12.0193 21.3848ZM4.49492 19.5088C4.7957 18.8428 5.08574 18.1709 5.36406 17.4951C5.50761 17.1475 5.73515 16.9922 6.10234 16.9922H6.11601C6.92753 16.999 7.73906 17.001 8.55156 17.001L11.1756 17C11.3982 17 11.5779 17.0108 11.6902 17.1416C11.8016 17.2705 11.7859 17.4473 11.7537 17.666L11.6844 18.1152C11.6092 18.6055 11.534 19.0957 11.4734 19.5869C11.4324 19.9258 11.243 20.0908 10.8826 20.0908C10.3611 20.086 9.01054 20.083 7.69999 20.083C6.51347 20.083 5.35917 20.086 4.86112 20.0908C4.76542 20.0908 4.56717 20.0908 4.46952 19.9385C4.36991 19.7842 4.45488 19.5977 4.49492 19.5088ZM10.6404 25.333L10.5105 26.2266C10.4314 26.7559 10.3523 27.2852 10.2898 27.8164C10.2352 28.292 9.93243 28.3565 9.63458 28.3565C8.98321 28.3516 7.41095 28.3506 5.79083 28.3506L1.36603 28.3516C1.16388 28.3516 1.01837 28.3516 0.929506 28.2276C0.842596 28.1065 0.886536 27.9756 0.975406 27.7119C1.13557 27.2246 1.3465 26.7559 1.55158 26.3028C1.71857 25.9326 1.88556 25.5615 2.02619 25.1807C2.15217 24.835 2.38068 24.6807 2.77717 24.6807C4.05354 24.6865 5.32893 24.6885 6.60529 24.6885L10.0818 24.6875C10.3328 24.6875 10.4832 24.6875 10.5897 24.8096C10.6971 24.9326 10.6746 25.0918 10.6404 25.333ZM10.9236 23.3926C10.8836 23.7207 10.7019 23.8799 10.3562 23.8799C9.74883 23.875 8.2039 23.8731 6.68339 23.8731C5.24101 23.8731 3.82109 23.875 3.22929 23.8799C3.13261 23.8799 2.92949 23.8799 2.8289 23.7256C2.72831 23.5693 2.81425 23.3789 2.85038 23.2969C3.16386 22.6035 3.46366 21.9033 3.76347 21.2041C3.86308 20.9707 4.04374 20.8574 4.31523 20.8574L7.78007 20.8535C8.68339 20.8535 9.58671 20.8574 10.489 20.8731L10.6883 20.875C10.9363 20.876 11.073 20.876 11.1697 20.9902C11.2615 21.0996 11.2391 21.2246 11.2098 21.3975C11.1971 21.4707 11.1805 21.5625 11.1668 21.6787C11.1316 21.9824 11.0857 22.2842 11.0389 22.5869C10.9978 22.8555 10.9568 23.1231 10.9236 23.3926ZM20.4412 28.2227C20.3289 28.3516 20.1678 28.3516 19.8738 28.3516L15.7361 28.3506C14.0057 28.3506 12.2703 28.3516 11.5613 28.3565C11.4314 28.3565 11.2693 28.3408 11.1639 28.2178C11.0584 28.0947 11.0691 27.9317 11.0867 27.8194C11.2205 26.9326 11.3465 26.043 11.4783 25.1153C11.5184 24.8301 11.701 24.6856 12.0232 24.6856C12.0232 24.6856 13.5877 24.6895 15.032 24.6895C16.6521 24.6895 18.5057 24.6875 19.5018 24.6807C19.9041 24.6807 20.1043 24.8584 20.1531 25.2578C20.2361 25.9326 20.3348 26.6055 20.4334 27.2783L20.4891 27.6592C20.5291 27.9405 20.5516 28.0947 20.4412 28.2227ZM20.6736 23.3477C20.5887 22.6846 20.4949 22.0235 20.3885 21.3643C20.3709 21.2598 20.3592 21.1065 20.4598 20.9883C20.5574 20.8721 20.7088 20.8574 20.8299 20.8574L27.284 20.8584C27.5652 20.8584 27.7527 20.9776 27.8572 21.2217C28.1512 21.9151 28.4451 22.6074 28.7566 23.294C28.8006 23.3916 28.8836 23.5752 28.7849 23.7276C28.6883 23.877 28.4939 23.8799 28.3846 23.8799H28.3787C27.7693 23.874 26.2449 23.8711 24.742 23.8711C23.2986 23.8711 21.8748 23.874 21.2859 23.8809C20.9139 23.8809 20.7195 23.711 20.6736 23.3477ZM30.6551 28.2178C30.5555 28.3447 30.3914 28.3604 30.2605 28.3604C29.5789 28.3506 27.8885 28.3467 26.1844 28.3467C24.4305 28.3467 22.6609 28.3506 21.9441 28.3584C21.5574 28.3584 21.3641 28.1885 21.3143 27.8096C21.2 26.9375 21.0682 26.0694 20.9353 25.2012C20.91 25.0381 20.9353 24.9151 21.0135 24.8233C21.1307 24.6865 21.3084 24.6865 21.451 24.6865C21.451 24.6865 28.4861 24.6875 28.9129 24.6846C29.1238 24.6846 29.3846 24.7295 29.5291 25.0762C29.7674 25.6436 30.0154 26.208 30.2635 26.7725L30.6033 27.5479C30.6375 27.624 30.6717 27.7022 30.6922 27.7842C30.7224 27.9082 30.7635 28.0791 30.6551 28.2178Z" fill="#4D4D4D"/>
<path d="M15.8299 11.4053H15.8445C18.0516 11.4053 19.8484 9.58595 19.8504 7.34377C19.8807 6.31936 19.4646 5.28615 18.7098 4.50881C17.9441 3.72072 16.9285 3.28615 15.8045 3.28615C13.4783 3.31252 11.7322 5.07521 11.7439 7.38674C11.7547 9.67092 13.5115 11.3985 15.8299 11.4053ZM13.5174 5.03127C14.1248 4.41994 14.9402 4.084 15.8133 4.084L15.9139 4.08302C17.4803 4.08302 19.0779 5.70118 19.0799 7.28907C19.0818 8.16602 18.7195 9.03321 18.0867 9.66798C17.4705 10.2852 16.6727 10.625 15.8338 10.625C14.0291 10.6201 12.5525 9.18067 12.5418 7.41407C12.5369 6.52735 12.8924 5.6592 13.5174 5.03127Z" fill="#4D4D4D"/>
<path d="M20.2547 11.2393L20.0447 11.0323C19.9734 10.9629 19.8777 10.9209 19.7645 10.9112C19.616 10.9112 19.4842 10.9844 19.4119 11.1075C19.3445 11.2227 19.3445 11.3574 19.4119 11.4776C19.6404 11.8848 19.9822 12.2403 20.4881 12.5967C20.5584 12.6465 20.6346 12.6709 20.7146 12.6709C20.8279 12.6709 20.9383 12.6182 21.0164 12.5245C21.1521 12.3643 21.1424 12.1485 20.992 11.9873C20.7537 11.7305 20.5037 11.4854 20.2547 11.2393Z" fill="#4D4D4D"/>
<path d="M11.198 3.37209C11.3074 3.46682 11.4158 3.56252 11.5183 3.66311C11.6043 3.74807 11.7117 3.79397 11.823 3.79397C11.8963 3.79397 11.9695 3.77444 12.0428 3.73538C12.1658 3.66995 12.2273 3.56155 12.241 3.40726C12.2391 3.34867 12.2332 3.26566 12.201 3.22757C11.8894 2.85648 11.5105 2.43069 11.0564 2.09671C10.9978 2.05276 10.9383 2.03128 10.8767 2.03128C10.7635 2.03128 10.6648 2.1055 10.6033 2.16702C10.4519 2.31839 10.4344 2.43557 10.5369 2.63186C10.6912 2.92874 10.9373 3.14456 11.198 3.37209Z" fill="#4D4D4D"/>
<path d="M20.9988 7.38674C21.0135 7.59182 21.1697 7.73147 21.3963 7.74319C21.4793 7.74807 21.5613 7.74905 21.6443 7.74905H22.4959C22.5818 7.74905 22.6687 7.74807 22.7557 7.74319C22.9832 7.73245 23.1404 7.59378 23.157 7.38967C23.1717 7.21291 23.0525 7.00393 22.8338 6.97365C22.5838 6.93849 22.3328 6.92092 22.0809 6.92092C21.8289 6.92092 21.577 6.9385 21.3279 6.9717C21.115 7.001 20.9861 7.20998 20.9988 7.38674Z" fill="#4D4D4D"/>
<path d="M8.84941 7.74318C8.93242 7.74806 9.0164 7.74904 9.09941 7.74904L9.90214 7.75002L10.1551 7.74611C10.4119 7.73927 10.5691 7.61232 10.5867 7.3965C10.6072 7.15334 10.4656 6.98244 10.2273 6.959C9.98905 6.93459 9.74881 6.92287 9.50956 6.92287C9.27031 6.92287 9.03104 6.93459 8.79374 6.96096C8.55936 6.98537 8.44022 7.18557 8.44608 7.36135C8.45292 7.57424 8.61894 7.73146 8.84941 7.74318Z" fill="#4D4D4D"/>
<path d="M19.7537 3.78518C19.8582 3.78518 19.9578 3.74416 20.0428 3.66702C20.3699 3.36624 20.6961 3.06057 21.0017 2.73831C21.1492 2.58206 21.1209 2.39944 21.0721 2.27444C21.0154 2.13186 20.9041 2.0469 20.7889 2.00979C20.6209 2.0303 20.4822 2.10061 20.3523 2.23245L20.2732 2.31253C20.0125 2.57523 19.7518 2.83792 19.4959 3.1055C19.3162 3.293 19.3055 3.50101 19.4666 3.66214C19.5457 3.74222 19.6473 3.78518 19.7537 3.78518Z" fill="#4D4D4D"/>
<path d="M16.1814 12.8926C16.1648 12.7041 16.0066 12.5606 15.7693 12.544C15.6258 12.544 15.4695 12.6348 15.4422 12.8799C15.3865 13.3741 15.3289 13.8848 15.4236 14.3721C15.4646 14.5801 15.6219 14.7207 15.8142 14.7207L15.8406 14.7198C16.0252 14.708 16.1785 14.5283 16.1883 14.3106C16.1971 14.1533 16.1951 13.9961 16.1932 13.8389V13.8291H16.1853L16.1883 13.3965C16.1922 13.2275 16.1961 13.0596 16.1814 12.8926Z" fill="#4D4D4D"/>
<path d="M15.8016 2.14357L15.8328 2.14259C16.0496 2.13185 16.1717 2.00978 16.1853 1.79005C16.1951 1.62989 16.1922 1.46876 16.1902 1.3086V0.84766C16.1932 0.67969 16.1961 0.51172 16.1844 0.34473C16.1697 0.14356 16.0232 0.00489 15.8064 0C15.6385 0 15.4519 0.08301 15.4392 0.26562L15.4148 0.59277C15.3797 1.01465 15.3475 1.41211 15.4207 1.80957C15.45 1.96191 15.5389 2.14357 15.8016 2.14357Z" fill="#4D4D4D"/>
<path d="M11.8426 10.9102C11.7498 10.9102 11.66 10.9512 11.574 11.0323C11.3631 11.2305 11.159 11.4356 10.9549 11.6406L10.6814 11.9131C10.4783 12.1133 10.4529 12.3848 10.6219 12.5576C10.6873 12.626 10.7664 12.6602 10.8572 12.6602C10.9734 12.6602 11.0975 12.6016 11.2078 12.4951C11.3865 12.3242 11.5623 12.1485 11.7371 11.9737L12.1248 11.5889C12.1883 11.5264 12.2313 11.4492 12.2332 11.2949C12.2108 11.0693 12.0994 10.9922 12.0193 10.9531C11.9578 10.9248 11.8982 10.9102 11.8426 10.9102Z" fill="#4D4D4D"/>
</svg>
