<svg width="28" height="33" viewBox="0 0 28 33" fill="none" xmlns="http://www.w3.org/2000/svg">
<path d="M12.8535 10.0505L9.59834 5.30132C8.49581 3.69149 8.96854 1.58141 10.6524 0.596571L10.809 0.504981C11.6243 0.0274714 12.5997 -0.117619 13.5547 0.0963413C14.509 0.310121 15.3293 0.857511 15.863 1.63726L19.1181 6.38645L12.8535 10.0505ZM13.3106 1.18615C12.6681 1.0422 12.0131 1.13986 11.4641 1.46095L11.3075 1.55254C10.1754 2.21467 9.85749 3.63368 10.5987 4.71624L13.1987 8.50946L17.4626 6.01557L14.8626 2.22235C14.5031 1.69771 13.9524 1.32993 13.3106 1.18615Z" fill="#4D4D4D"/>
<path d="M13.6124 18.0279C13.1361 17.9212 12.7273 17.6485 12.4614 17.2596L12.3304 17.0693C11.2782 15.5349 10.9156 13.7272 11.3074 11.9782C11.6992 10.2293 12.7984 8.74912 14.4038 7.81078L16.2535 6.72896C17.8582 5.78974 19.7766 5.50496 21.6554 5.92587C23.5341 6.34678 25.1477 7.42284 26.1983 8.95696L26.3298 9.14886C26.5958 9.53706 26.6885 9.9952 26.5893 10.4379C26.49 10.8814 26.2115 11.2564 25.8045 11.4938L14.9804 17.824C14.574 18.0623 14.088 18.1345 13.6124 18.0279ZM21.4107 7.01781C19.91 6.68159 18.2893 6.87734 16.9086 7.68493L15.0589 8.76675C12.2972 10.3826 11.5218 13.8436 13.3301 16.4834L13.4612 16.6737C13.65 16.9492 14.037 17.0366 14.3253 16.868L25.1494 10.5378C25.2885 10.4565 25.3846 10.3275 25.4186 10.1757C25.4527 10.0238 25.4213 9.86705 25.3293 9.73467L25.198 9.54206C24.2938 8.22255 22.9115 7.35403 21.4107 7.01781Z" fill="#4D4D4D"/>
<path d="M26.448 32.6403H2.63879C2.29031 32.6403 2.00758 32.4019 2.00758 32.1082C2.00758 31.8144 2.29031 31.5761 2.63879 31.5761H26.448C26.7965 31.5761 27.0793 31.8144 27.0793 32.1082C27.0793 32.4019 26.7965 32.6403 26.448 32.6403Z" fill="#4D4D4D"/>
<path d="M15.0723 32.4401C14.9356 32.4401 14.8067 32.3913 14.7109 32.3024L0.15137 16.8317C0.05078 16.736 0 16.6237 0 16.5055C0 16.3874 0.0498 16.2751 0.1416 16.1901L10.5869 6.46843C10.6826 6.37956 10.8105 6.32976 10.9473 6.32976C11.083 6.32976 11.2109 6.37956 11.3066 6.46843C11.3984 6.55339 11.4492 6.6657 11.4492 6.78386C11.4492 6.90202 11.3984 7.01433 11.3076 7.09929L1.21191 16.4958L15.4228 31.6608C15.5234 31.7555 15.5742 31.8678 15.5742 31.986C15.5742 32.1052 15.5234 32.2175 15.4316 32.3024C15.3369 32.3913 15.209 32.4401 15.0723 32.4401Z" fill="#4D4D4D"/>
</svg>
