<svg width="32" height="18" viewBox="0 0 32 18" fill="none" xmlns="http://www.w3.org/2000/svg">
<path d="M27.1241 0H4.87689C2.1875 0 0 2.1875 0 4.87689V12.5862C0 15.2746 2.1875 17.4621 4.87689 17.4621H27.1241C29.8125 17.4621 32 15.2746 32 12.5862V4.87689C32 2.1875 29.8125 0 27.1241 0ZM31.0303 12.5862C31.0303 14.7405 29.2784 16.4924 27.1241 16.4924H4.87689C2.72253 16.4924 0.96969 14.7405 0.96969 12.5862V4.87689C0.9697 2.72254 2.72254 0.9697 4.87689 0.9697H27.1241C29.2784 0.9697 31.0303 2.72254 31.0303 4.8769V12.5862Z" fill="#4D4D4D"/>
<path d="M14.0919 10.9309H14.0691L12.4394 4.5767H10.9508L9.27462 10.9309H9.25095L7.75 4.5767H6.27273L8.46023 12.8854H9.96117L11.66 6.5322H11.6837L13.3475 12.8854H14.8248L17.1174 4.5767H15.6402L14.0919 10.9309Z" fill="#4D4D4D"/>
<path d="M24.1108 10.5701C24.0095 10.8333 23.8703 11.0644 23.6922 11.2623C23.5133 11.4602 23.3002 11.6155 23.0521 11.7273C22.803 11.84 22.517 11.8968 22.1903 11.8968C21.7481 11.8968 21.3665 11.8068 21.0445 11.6288C20.7225 11.4508 20.4612 11.2121 20.2595 10.9129C20.0578 10.6146 19.9081 10.2746 19.8116 9.89489C19.714 9.51516 19.6657 9.1269 19.6657 8.73106C19.6657 8.33522 19.714 7.94792 19.8116 7.56723C19.9081 7.1875 20.0578 6.84848 20.2595 6.54924C20.4612 6.25094 20.7225 6.01231 21.0445 5.83333C21.3665 5.6553 21.7481 5.56628 22.1903 5.56628C22.4934 5.56628 22.7585 5.607 22.9877 5.68844C23.2169 5.76988 23.4167 5.88446 23.5871 6.03124C23.7576 6.17897 23.8977 6.35321 24.0057 6.55491C24.1146 6.75661 24.1998 6.97821 24.2623 7.21874H25.7169C25.6705 6.76893 25.5493 6.36931 25.3561 6.01988C25.1619 5.67045 24.9081 5.37405 24.5938 5.12973C24.2794 4.88541 23.9167 4.69886 23.5057 4.57102C23.0947 4.44318 22.6563 4.37879 22.1903 4.37879C21.5701 4.37879 21.0133 4.49527 20.5208 4.72822C20.0284 4.96117 19.6117 5.27557 19.2699 5.67045C18.929 6.06628 18.6667 6.5284 18.4848 7.05587C18.3021 7.58333 18.2112 8.14204 18.2112 8.73106C18.2112 9.3286 18.3021 9.8911 18.4848 10.4186C18.6667 10.946 18.929 11.4072 19.2699 11.803C19.6117 12.1989 20.0284 12.5114 20.5208 12.7396C21.0133 12.9688 21.5701 13.0833 22.1903 13.0833C22.6951 13.0833 23.1563 13.0019 23.5758 12.839C23.9943 12.6761 24.3589 12.4451 24.6695 12.1468C24.9792 11.8475 25.2254 11.4934 25.4082 11.0814C25.59 10.6705 25.697 10.2169 25.7282 9.72064H24.3087C24.2775 10.0227 24.2112 10.3059 24.1108 10.5701Z" fill="#4D4D4D"/>
</svg>
