<svg width="20" height="13" viewBox="0 0 20 13" fill="black" xmlns="http://www.w3.org/2000/svg">
<path d="M19.8383 6.20525C17.7425 2.33938 14.0672 0 10 0C5.93284 0 2.25124 2.33938 0.174129 6.20525L0 6.4969L0.161692 6.79475C2.25746 10.6606 5.93284 13 10 13C14.0672 13 17.7488 10.6916 19.8383 6.79475L20 6.4969L19.8383 6.20525ZM10 11.7279C6.49876 11.7279 3.28358 9.77948 1.41791 6.4969C3.28358 3.21432 6.49876 1.26587 10 1.26587C13.5012 1.26587 16.6791 3.22052 18.5759 6.4969C16.6791 9.77948 13.495 11.7279 10 11.7279Z" />
<path d="M10.1803 2.25868C9.33714 2.26482 8.51466 2.52016 7.8168 2.99244C7.11894 3.46472 6.577 4.13277 6.25943 4.9122C5.94186 5.69163 5.86289 6.54748 6.03252 7.37167C6.20214 8.19585 6.61274 8.95139 7.21246 9.54286C7.81218 10.1343 8.57411 10.5352 9.40202 10.6948C10.2299 10.8545 11.0867 10.7657 11.8641 10.4398C12.6415 10.1139 13.3046 9.56539 13.7698 8.86361C14.235 8.16183 14.4813 7.33824 14.4776 6.49687C14.4752 5.93681 14.362 5.38273 14.1446 4.86639C13.9271 4.35005 13.6097 3.8816 13.2105 3.48788C12.8113 3.09417 12.3382 2.78293 11.8182 2.572C11.2982 2.36107 10.7416 2.2546 10.1803 2.25868ZM10.1803 9.53124C9.58473 9.52511 9.00421 9.34352 8.5117 9.00926C8.01918 8.675 7.63663 8.20299 7.41209 7.6525C7.18755 7.10201 7.13103 6.49759 7.24963 5.91516C7.36824 5.33272 7.65667 4.79824 8.07871 4.37884C8.50076 3.95944 9.03759 3.67382 9.62178 3.55785C10.206 3.44189 10.8115 3.50075 11.3623 3.72704C11.913 3.95334 12.3845 4.33697 12.7175 4.82977C13.0505 5.32256 13.2301 5.90254 13.2338 6.49687C13.2355 6.89686 13.1575 7.2932 13.0045 7.6629C12.8515 8.03261 12.6265 8.36832 12.3424 8.65058C12.0584 8.93284 11.721 9.15603 11.3499 9.3072C10.9787 9.45838 10.5812 9.53453 10.1803 9.53124Z" />
</svg>
